<?xml version="1.0" standalone="no"?>
<!DOCTYPE svg PUBLIC "-//W3C//DTD SVG 20010904//EN"
 "http://www.w3.org/TR/2001/REC-SVG-20010904/DTD/svg10.dtd">
<svg version="1.0" xmlns="http://www.w3.org/2000/svg"
 width="600.000000pt" height="1067.000000pt" viewBox="0 0 600.000000 1067.000000"
 preserveAspectRatio="xMidYMid meet">
<g transform="translate(0.000000,1067.000000) scale(0.100000,-0.100000)"
fill="#FFFB00" stroke="none">
<path d="M2963 8719 c-12 -4 -29 -19 -38 -32 -13 -21 -29 -27 -98 -36 -135
-19 -136 -19 -129 -44 5 -19 4 -19 -10 -6 -9 7 -13 19 -10 24 3 6 -5 3 -18 -6
-14 -9 -38 -18 -55 -21 -16 -3 -118 -31 -225 -62 -136 -40 -205 -56 -228 -52
-23 3 -46 -1 -70 -14 -20 -11 -47 -20 -60 -20 -31 0 -179 -77 -186 -96 -8 -22
-8 -714 1 -714 3 0 14 7 23 15 21 19 38 21 145 12 50 -4 119 -9 154 -12 l63
-4 -6 72 -7 73 47 12 c90 24 210 83 315 153 57 39 141 95 187 125 45 31 82 60
82 65 0 11 -74 -18 -78 -31 -2 -5 -10 -6 -18 -3 -8 3 -14 0 -14 -7 0 -6 -4 -9
-9 -5 -5 3 -13 0 -17 -6 -4 -8 -3 -9 4 -5 7 4 12 3 12 -2 0 -4 -16 -16 -35
-25 -19 -9 -35 -21 -35 -27 0 -5 -5 -10 -11 -10 -6 0 -23 -9 -39 -20 -15 -11
-31 -16 -35 -12 -5 4 -5 2 -1 -5 4 -7 -3 -17 -16 -24 -13 -7 -29 -19 -36 -28
-8 -9 -11 -10 -7 -3 7 15 -11 16 -20 2 -8 -12 -97 -58 -137 -70 -18 -6 -28 -4
-32 3 -2 7 -5 2 -5 -10 -1 -24 -15 -30 -27 -12 -5 8 -10 6 -16 -5 -15 -27 -23
-18 -22 27 1 23 -1 30 -3 15 -4 -27 -43 -61 -43 -38 0 5 5 10 10 10 6 0 10 20
10 45 0 51 23 83 55 76 16 -3 17 -1 7 12 -10 12 -19 13 -42 6 -25 -9 -29 -18
-40 -75 -13 -69 -9 -94 15 -94 12 0 10 -6 -8 -22 -18 -17 -22 -29 -17 -43 8
-23 1 -85 -10 -85 -4 0 -5 133 -3 295 3 220 1 295 -8 295 -8 0 -10 -12 -6 -35
3 -19 2 -35 -4 -35 -15 0 -10 72 6 84 13 9 11 15 -12 41 -27 29 -28 29 -31 7
-4 -28 -13 -28 -30 -1 -8 12 -9 18 -3 14 7 -4 11 15 11 60 0 44 4 64 11 60 6
-4 8 -14 4 -22 -4 -13 -3 -14 9 -4 21 18 37 4 35 -27 -1 -15 -1 -38 1 -52 2
-14 6 4 9 39 6 64 26 93 34 49 4 -23 4 -23 6 1 1 24 1 24 16 5 14 -18 14 -18
15 0 0 12 5 16 16 12 9 -4 13 -2 8 5 -4 7 0 9 14 5 14 -5 27 0 39 12 20 22
153 66 153 51 0 -5 -8 -12 -17 -16 -66 -22 -152 -67 -141 -74 7 -4 15 -5 18
-1 6 8 47 32 55 32 4 0 3 -5 -1 -12 -4 -7 -3 -8 5 -4 6 4 8 12 5 18 -4 6 -2 8
3 5 10 -7 51 9 103 38 22 13 23 15 5 16 -11 0 7 9 40 20 33 10 72 23 87 28 21
7 25 6 21 -5 -3 -8 -9 -12 -13 -9 -5 3 -11 1 -15 -4 -3 -6 -12 -8 -20 -4 -8 3
-15 1 -15 -5 0 -5 20 -9 45 -8 29 0 45 6 45 14 0 15 17 16 26 0 5 -8 12 -2 20
17 7 17 13 24 14 17 0 -7 7 -12 16 -10 10 2 19 -4 21 -12 4 -13 3 -13 -7 0 -8
12 -9 10 -5 -10 3 -14 7 -35 8 -47 0 -12 4 -20 9 -17 7 4 24 -21 28 -41 3 -17
10 -19 10 -3 0 9 -7 33 -16 53 -10 24 -13 51 -9 71 6 33 6 33 50 27 39 -5 45
-3 46 13 0 11 3 14 5 7 7 -15 34 -5 34 12 0 17 44 45 70 45 26 0 70 -28 70
-45 0 -17 27 -27 34 -12 2 7 5 4 5 -7 1 -16 7 -18 46 -13 44 6 44 6 50 -27 4
-20 1 -47 -9 -71 -16 -38 -21 -74 -9 -61 4 3 8 16 10 28 4 29 12 35 22 20 5
-9 8 -2 9 17 0 17 4 41 7 54 5 18 4 19 -5 7 -10 -13 -11 -13 -7 0 2 8 10 14
17 12 7 -2 16 2 20 8 5 7 10 1 14 -15 6 -23 9 -25 22 -14 12 10 17 10 23 1 10
-16 91 -26 91 -11 0 6 -7 9 -15 6 -8 -4 -17 -2 -20 4 -4 5 -10 7 -15 4 -4 -3
-10 1 -13 9 -4 11 0 12 21 5 15 -5 54 -18 87 -28 33 -11 51 -20 40 -20 -18 -1
-17 -3 5 -16 52 -29 93 -45 103 -38 5 3 7 1 3 -5 -3 -6 -1 -14 5 -18 8 -4 9
-3 5 4 -4 7 -5 12 -1 12 8 0 49 -24 55 -32 3 -4 11 -3 18 1 11 7 -75 52 -140
74 -10 4 -18 11 -18 17 0 6 3 9 8 7 4 -3 32 -12 63 -21 30 -8 66 -25 79 -36
15 -13 31 -18 43 -14 14 4 17 3 12 -7 -6 -9 -4 -11 8 -6 9 3 18 1 21 -6 3 -9
7 -8 14 2 8 11 11 9 15 -10 l4 -24 2 23 c2 45 26 16 32 -39 5 -51 6 -51 7 -12
2 46 15 61 38 42 12 -10 13 -9 9 4 -4 8 -2 18 4 22 7 4 11 -16 11 -60 0 -45 4
-64 11 -60 6 4 5 -2 -3 -14 -17 -27 -26 -27 -30 1 -3 22 -4 22 -31 -7 -23 -26
-25 -32 -12 -41 16 -12 21 -84 6 -84 -6 0 -7 16 -4 35 4 23 2 35 -6 35 -9 0
-11 -75 -8 -295 2 -162 1 -295 -3 -295 -11 0 -18 62 -10 85 5 15 0 26 -19 44
-24 23 -25 24 -4 19 22 -6 22 -4 17 61 -3 36 -6 74 -7 83 -2 22 -50 33 -74 18
-17 -10 -17 -11 2 -8 32 5 55 -27 55 -77 0 -25 5 -45 10 -45 6 0 10 -5 10 -10
0 -23 -39 11 -43 38 -2 15 -4 8 -3 -15 1 -45 -7 -54 -22 -27 -6 11 -11 13 -16
5 -12 -19 -26 -12 -26 12 0 16 -3 18 -9 8 -7 -11 -23 -7 -84 22 -41 20 -78 40
-82 46 -9 15 -28 14 -20 -1 4 -7 1 -6 -7 3 -7 9 -23 21 -36 28 -13 7 -20 17
-16 24 4 7 4 9 -1 5 -4 -4 -20 1 -35 12 -16 11 -33 20 -39 20 -6 0 -11 5 -11
10 0 6 -16 18 -35 27 -19 9 -35 21 -35 25 0 5 5 6 12 2 7 -4 8 -3 4 5 -4 6
-12 9 -17 6 -5 -4 -9 -1 -9 5 0 7 -6 10 -14 7 -8 -3 -16 -2 -18 3 -4 13 -78
42 -78 31 0 -5 37 -34 83 -65 45 -30 129 -86 186 -125 105 -70 225 -129 315
-153 l47 -12 -7 -73 -6 -72 63 4 c35 3 105 8 154 12 107 9 124 7 145 -12 9 -8
20 -15 23 -15 10 0 8 703 -2 718 -12 19 -158 92 -184 92 -12 0 -39 9 -59 20
-24 13 -47 17 -70 14 -23 -4 -92 12 -228 52 -107 31 -208 59 -225 62 -16 3
-41 12 -55 21 -13 9 -21 12 -18 6 3 -5 -1 -17 -10 -24 -14 -13 -15 -13 -10 6
7 25 7 24 -127 44 -69 9 -84 15 -105 40 -26 31 -69 42 -107 28z m-186 -105
c-3 -3 -12 -4 -19 -1 -8 3 -5 6 6 6 11 1 17 -2 13 -5z m470 0 c-3 -3 -12 -4
-19 -1 -8 3 -5 6 6 6 11 1 17 -2 13 -5z m-1180 -231 c-2 -37 -8 -68 -14 -70
-8 -3 -10 13 -7 54 6 64 10 83 19 83 3 0 4 -30 2 -67z m1886 -11 c4 -44 2 -62
-6 -59 -6 2 -12 34 -14 73 -5 87 12 75 20 -14z m-1952 38 c0 10 3 8 9 -5 7
-17 9 -17 9 -2 1 9 4 17 9 17 4 0 7 -28 7 -62 0 -48 -4 -67 -18 -80 -17 -15
-17 -22 -7 -52 15 -48 22 -46 14 4 -6 38 -5 41 27 54 29 13 34 13 37 0 2 -7
-6 -27 -17 -42 -11 -16 -21 -35 -23 -43 -2 -8 -7 -17 -13 -21 -5 -4 -7 -10 -3
-13 9 -9 47 26 42 39 -2 6 5 22 16 36 l20 25 -6 -35 c-8 -49 -24 -79 -46 -86
-15 -4 -18 -16 -18 -74 0 -70 -16 -297 -26 -357 -3 -18 -10 -33 -15 -33 -11 0
-8 71 12 274 5 54 9 113 9 131 0 32 -1 32 -46 33 -26 1 -49 3 -51 6 -3 2 -4
43 -4 91 0 48 -3 84 -8 80 -5 -3 -7 -134 -4 -305 5 -223 3 -300 -5 -300 -9 0
-12 79 -14 293 -1 160 -2 310 -2 332 -1 22 4 40 9 40 6 0 9 -3 8 -7 -5 -13 4
-9 18 9 9 11 10 14 2 9 -9 -5 -11 -2 -7 9 5 12 9 13 20 4 8 -7 17 -9 21 -5 3
3 1 6 -6 6 -9 0 -9 4 1 14 7 8 16 12 21 9 4 -2 7 2 7 9 0 9 3 9 10 -2 9 -13
10 -13 11 0z m1980 -7 c0 -15 2 -15 9 2 6 13 9 15 9 5 1 -13 2 -13 11 0 7 11
10 11 10 2 0 -7 3 -11 8 -9 4 3 13 -1 20 -9 10 -10 10 -14 1 -14 -7 0 -9 -3
-6 -6 4 -4 13 -2 21 5 11 9 15 8 20 -4 4 -11 2 -14 -7 -9 -8 5 -7 2 2 -9 15
-19 22 -22 19 -8 -2 5 2 8 7 8 6 -1 10 -20 9 -42 0 -22 -1 -172 -2 -332 -2
-214 -5 -293 -14 -293 -8 0 -10 78 -5 305 3 200 2 303 -4 299 -6 -3 -10 -27
-9 -53 3 -93 4 -91 -42 -93 l-43 -1 43 -4 c23 -2 42 -8 42 -14 0 -9 -43 -14
-84 -9 -17 2 -18 -5 -12 -92 4 -51 9 -111 11 -133 13 -117 16 -215 6 -215 -5
0 -12 15 -15 33 -10 60 -26 287 -26 357 0 58 -3 70 -18 74 -22 7 -38 37 -46
86 l-6 35 20 -25 c11 -14 18 -30 16 -36 -5 -13 33 -48 42 -39 4 3 2 9 -3 13
-6 4 -11 13 -13 21 -2 8 -12 27 -23 43 -11 15 -19 35 -17 42 3 13 8 13 37 0
32 -14 33 -16 27 -57 -6 -40 -5 -41 9 -17 19 34 19 56 -2 72 -14 10 -18 28
-18 76 0 34 3 62 8 62 4 0 7 -8 8 -17z m-2111 -103 c0 -16 -4 -30 -10 -30 -11
0 -14 43 -3 53 11 12 13 8 13 -23z m2280 -6 c0 -13 -4 -24 -10 -24 -5 0 -10
14 -10 31 0 17 4 28 10 24 6 -3 10 -17 10 -31z m-2012 -31 c2 -39 -12 -73 -23
-61 -4 3 -1 16 5 28 9 16 9 25 -1 36 -6 8 -8 14 -3 14 5 0 2 5 -6 10 -12 8
-11 10 6 10 17 0 21 -7 22 -37z m1752 27 c-19 -13 -30 -13 -30 0 0 6 10 10 23
10 18 0 19 -2 7 -10z m-9 -24 c-10 -11 -10 -20 -1 -36 13 -25 4 -42 -10 -20
-14 21 -12 57 3 63 19 8 20 8 8 -7z m-2010 -58 c1 -29 0 -159 0 -288 -1 -187
-5 -238 -16 -249 -12 -12 -13 27 -9 275 3 159 5 295 4 302 0 6 5 12 10 12 6 0
10 -24 11 -52z m2279 40 c-1 -7 1 -143 4 -302 4 -249 3 -287 -9 -275 -12 11
-15 61 -16 249 -2 305 -1 340 11 340 6 0 10 -6 10 -12z m-2020 -78 c0 -11 -1
-22 -2 -25 -2 -2 4 -10 14 -17 10 -8 18 -31 20 -60 3 -40 1 -47 -13 -43 -10 3
-16 -1 -16 -10 0 -9 6 -14 14 -11 8 3 13 -2 13 -13 0 -11 -5 -21 -11 -23 -9
-3 -9 -10 0 -26 15 -28 11 -246 -5 -262 -12 -12 -18 58 -30 353 -5 115 -4 157
4 157 7 0 12 -9 12 -20z m25 11 c-3 -5 -1 -12 5 -16 5 -3 10 -14 10 -23 0 -12
-4 -10 -14 8 -12 23 -12 40 0 40 3 0 3 -4 -1 -9z m1731 -148 c-12 -295 -18
-365 -30 -353 -16 16 -20 234 -5 262 9 16 9 23 0 26 -6 2 -11 12 -11 23 0 11
5 16 13 13 8 -3 14 2 14 11 0 9 -6 13 -16 10 -14 -4 -16 3 -13 43 2 29 10 52
20 60 10 7 16 15 15 17 -8 14 -1 45 9 45 8 0 9 -42 4 -157z m-43 117 c-3 -12
-8 -19 -11 -16 -5 6 5 36 12 36 2 0 2 -9 -1 -20z m-1764 -27 c-10 -11 -10 -14
-1 -9 6 4 13 4 13 -1 6 -34 6 -60 1 -68 -10 -16 -11 -35 -1 -29 5 3 9 -2 9
-11 0 -9 -4 -14 -8 -11 -4 2 -8 -6 -8 -19 0 -12 5 -21 11 -19 12 5 12 -87 0
-107 -5 -7 -4 -10 2 -6 7 4 10 -19 11 -63 0 -38 3 -74 6 -79 3 -5 -1 -11 -9
-15 -8 -3 -15 -2 -15 3 0 4 -14 5 -31 3 l-31 -5 6 54 c16 152 27 324 21 346
-6 25 8 53 27 53 6 0 4 -8 -3 -17z m1859 5 c7 -7 9 -27 6 -52 -3 -23 2 -113
10 -200 11 -116 13 -162 5 -167 -8 -4 -7 -9 2 -13 8 -3 -1 -5 -18 -3 -18 2
-33 0 -33 -5 0 -5 -4 -6 -10 -3 -5 3 -9 41 -8 85 1 50 5 77 11 73 6 -4 7 -1 2
6 -12 20 -12 112 1 107 5 -2 10 7 10 19 0 13 -4 21 -8 19 -4 -3 -8 2 -8 11 0
9 4 14 9 11 10 -6 9 13 -1 29 -5 8 -5 34 1 68 0 5 7 5 14 1 8 -5 8 -2 -2 9
-15 19 -1 23 17 5z m-1938 -50 c0 -20 -4 -26 -15 -22 -8 4 -15 1 -15 -5 0 -6
7 -11 15 -11 8 0 15 -7 15 -15 0 -9 -6 -12 -15 -9 -8 4 -15 1 -15 -5 0 -6 5
-11 10 -11 6 0 10 -14 10 -30 0 -27 -2 -30 -25 -24 -15 4 -25 2 -25 -5 0 -6 9
-11 19 -11 27 0 30 -7 21 -68 -3 -29 -3 -55 2 -58 5 -3 0 -13 -10 -22 -10 -9
-12 -13 -5 -8 19 12 16 3 -6 -23 l-20 -22 -11 22 c-7 12 -8 19 -2 15 13 -8 22
55 11 70 -5 6 -9 70 -8 142 l0 132 35 -3 c30 -2 34 -5 34 -29z m2069 -102 c1
-74 -3 -137 -7 -140 -4 -3 -6 -21 -4 -40 2 -20 8 -33 14 -30 6 4 5 -3 -1 -15
-7 -11 -14 -21 -17 -21 -3 0 -2 5 1 10 3 6 -1 10 -9 10 -9 0 -16 3 -17 8 -1 4
-2 21 -3 37 -2 17 -5 53 -7 80 -4 46 -2 50 19 53 12 2 22 8 22 14 0 6 -10 8
-25 4 -23 -6 -25 -3 -25 24 0 16 5 30 11 30 5 0 7 5 4 10 -4 6 -11 8 -16 5 -5
-4 -9 1 -9 9 0 9 7 16 15 16 8 0 15 5 15 11 0 6 -7 9 -15 5 -11 -4 -15 2 -15
22 0 24 4 27 34 29 l35 3 0 -134z m-2099 -271 c0 -8 -4 -15 -10 -15 -5 0 -10
7 -10 15 0 8 5 15 10 15 6 0 10 -7 10 -15z m2080 0 c0 -8 -4 -15 -10 -15 -5 0
-10 7 -10 15 0 8 5 15 10 15 6 0 10 -7 10 -15z"/>
<path d="M1953 8143 c9 -2 25 -2 35 0 9 3 1 5 -18 5 -19 0 -27 -2 -17 -5z"/>
<path d="M2132 8111 c-8 -5 -12 -16 -10 -25 2 -12 6 -10 15 9 6 14 10 25 10
25 -1 0 -8 -4 -15 -9z"/>
<path d="M3859 8106 c4 -6 11 -18 14 -26 3 -9 6 -5 6 11 1 16 -4 26 -14 26 -9
0 -11 -4 -6 -11z"/>
<path d="M2051 7774 c0 -11 3 -14 6 -6 3 7 2 16 -1 19 -3 4 -6 -2 -5 -13z"/>
<path d="M2886 8585 c-3 -13 -9 -55 -11 -92 -3 -37 -8 -80 -10 -95 -3 -17 -1
-28 6 -28 8 0 8 -4 1 -12 -5 -7 -12 -53 -16 -103 -3 -49 -10 -139 -15 -200 -5
-60 -15 -210 -22 -332 -7 -123 -15 -223 -19 -223 -9 0 -12 26 -11 95 1 33 -1
79 -4 101 l-6 41 -74 2 -75 2 0 -111 0 -110 75 0 75 0 0 -28 c0 -15 4 -32 10
-38 5 -5 6 -35 3 -67 l-6 -57 -51 -15 c-65 -19 -239 -52 -317 -61 l-59 -7 0
30 c0 62 -11 93 -34 93 -17 0 -21 -7 -24 -36 -1 -19 4 -45 10 -57 12 -20 13
-17 18 33 l6 55 4 -58 c4 -52 3 -58 -12 -53 -10 2 -18 0 -18 -5 0 -4 -7 -6
-15 -3 -13 5 -13 9 -3 22 9 10 9 16 3 19 -13 4 -7 73 7 90 11 14 -18 139 -34
149 -4 3 -8 -29 -8 -70 0 -61 -3 -76 -15 -76 -8 0 -15 9 -15 20 0 11 -3 20 -7
20 -5 0 -6 22 -5 49 4 54 -16 104 -47 121 -11 5 -86 10 -171 10 -182 0 -215
-10 -227 -69 -5 -20 -8 -200 -8 -401 0 -405 -1 -401 66 -436 44 -22 373 -17
394 6 21 23 62 118 79 180 8 33 19 54 26 52 24 -6 344 -263 377 -303 12 -15 5
-220 -17 -469 -15 -173 -20 -200 -37 -200 -8 0 -33 -16 -56 -35 l-41 -35 -103
0 c-62 0 -111 5 -122 12 -36 22 -141 -44 -175 -111 -22 -43 -20 -62 3 -25 14
23 39 40 94 63 42 17 81 31 87 31 6 0 8 5 4 12 -5 7 -3 8 7 3 16 -10 182 -7
212 4 11 4 39 4 63 1 24 -4 41 -3 39 1 -3 4 2 26 10 49 17 49 38 236 60 545 9
121 19 223 23 227 14 14 106 27 117 17 5 -6 3 -9 -6 -9 -8 0 -27 -12 -40 -27
-24 -26 -26 -34 -24 -125 1 -54 4 -101 8 -104 4 -4 8 2 8 14 1 12 2 28 3 35 1
6 -2 18 -7 25 -7 9 -6 11 7 6 9 -3 16 -1 16 5 0 6 -3 11 -7 11 -5 0 -6 27 -5
60 4 55 6 62 41 89 l37 30 145 -4 c144 -3 199 -13 199 -37 0 -7 7 -105 15
-218 22 -300 43 -492 60 -540 8 -23 13 -45 10 -49 -2 -4 15 -5 39 -1 24 3 52
3 63 -1 30 -11 196 -14 212 -4 10 5 12 4 7 -3 -4 -7 -2 -12 4 -12 6 0 45 -14
87 -31 55 -23 80 -40 94 -63 23 -37 25 -18 3 25 -34 67 -139 133 -175 111 -11
-7 -60 -12 -122 -12 l-103 0 -41 35 c-23 19 -48 35 -56 35 -17 0 -22 27 -37
200 -22 249 -29 454 -17 469 33 40 353 297 377 303 7 2 18 -19 26 -52 17 -62
58 -157 79 -180 21 -23 350 -28 394 -6 67 35 66 31 66 436 0 201 -3 381 -8
401 -12 59 -45 69 -227 69 -85 0 -160 -5 -171 -10 -31 -17 -51 -67 -47 -121 1
-27 0 -49 -4 -49 -5 0 -8 -9 -8 -20 0 -11 -7 -20 -15 -20 -12 0 -15 15 -15 76
0 41 -4 73 -8 70 -16 -10 -45 -135 -34 -149 14 -17 20 -86 7 -90 -6 -3 -6 -9
3 -19 10 -13 10 -17 -3 -22 -8 -3 -15 -1 -15 3 0 5 -8 7 -17 5 -16 -5 -17 1
-13 53 l4 58 6 -55 c5 -50 6 -53 18 -33 6 12 11 38 10 57 -3 29 -7 36 -24 36
-23 0 -34 -31 -34 -93 l0 -30 -59 7 c-78 9 -252 42 -317 61 l-51 15 -6 57 c-3
32 -2 62 3 67 6 6 10 23 10 38 l0 28 75 0 75 0 0 110 0 111 -75 -2 -74 -2 -6
-41 c-3 -22 -5 -68 -4 -101 1 -69 -2 -95 -11 -95 -4 0 -12 100 -19 223 -7 122
-17 272 -22 332 -5 61 -12 151 -15 200 -3 50 -10 94 -15 100 -8 8 -14 -22 -10
-48 4 -26 11 -156 16 -317 10 -296 13 -339 25 -445 13 -114 17 -151 19 -182 0
-12 8 -28 16 -36 8 -8 12 -17 9 -20 -3 -3 15 -9 40 -12 50 -8 65 -20 47 -38
-8 -8 -11 -6 -11 6 0 9 -5 17 -11 17 -5 0 -7 -4 -4 -10 3 -5 -4 -10 -16 -10
-18 0 -21 -5 -17 -29 2 -17 1 -28 -4 -25 -4 3 -8 1 -8 -5 0 -5 4 -12 9 -15 15
-10 181 -57 246 -70 l59 -13 -114 -18 c-63 -10 -127 -24 -142 -31 -15 -8 -31
-14 -36 -14 -6 0 -12 32 -14 72 -2 39 -9 73 -14 75 -7 2 -10 25 -8 56 3 46 3
49 -6 22 -12 -33 -4 -189 11 -216 10 -19 -6 -21 -72 -7 l-47 9 -1 126 c-1 89
2 129 11 141 10 12 10 14 1 8 -9 -5 -13 0 -13 15 0 19 2 20 18 8 9 -7 6 -1 -7
14 -23 25 -23 27 -5 27 13 0 15 3 6 8 -10 7 -12 100 -10 444 2 280 -1 436 -7
435 -5 -1 -11 9 -13 22 -3 19 -6 21 -13 10 -7 -11 -9 -11 -9 4 0 9 -7 17 -16
17 -8 0 -13 3 -11 8 3 4 -8 7 -23 7 -15 0 -26 -3 -23 -7 2 -5 -3 -8 -11 -8 -9
0 -16 -8 -16 -17 0 -15 -2 -15 -9 -4 -7 11 -10 9 -13 -10 -2 -13 -8 -23 -13
-22 -6 1 -10 -157 -10 -435 0 -289 -3 -439 -10 -444 -6 -5 -2 -8 9 -8 18 0 18
-2 -5 -27 -13 -15 -16 -21 -6 -14 14 12 17 11 17 -3 0 -9 -5 -16 -12 -16 -9 0
-9 -3 0 -12 8 -8 12 -54 12 -139 l0 -127 -47 -10 c-68 -14 -84 -12 -74 7 16
29 24 187 11 207 -9 16 -10 12 -7 -23 3 -26 1 -43 -6 -46 -6 -2 -13 -35 -15
-75 -2 -40 -8 -72 -14 -72 -5 0 -21 6 -36 14 -15 7 -79 21 -142 32 -111 17
-113 18 -70 26 45 8 205 52 248 69 12 5 22 13 22 19 0 6 -4 9 -8 6 -4 -2 -6
10 -4 29 2 19 -1 36 -9 40 -8 5 -10 4 -5 -3 4 -7 1 -12 -8 -12 -27 0 -5 31 26
37 16 3 26 8 24 11 -3 3 1 10 9 16 8 6 16 35 19 66 3 30 10 100 15 155 6 55
13 145 16 200 2 55 7 161 11 235 4 74 6 141 6 148 -4 27 -4 40 3 107 3 39 8
113 10 165 5 94 9 150 11 150 1 0 14 -7 30 -14 15 -8 32 -12 38 -9 6 3 1 -5
-12 -19 -43 -47 5 -101 73 -84 15 4 30 18 36 33 8 21 6 30 -10 47 l-21 22 22
1 c11 1 26 7 32 13 13 13 35 -66 36 -127 0 -24 5 -43 10 -43 6 0 8 12 5 28 -2
15 -7 58 -10 95 -6 82 -14 117 -27 117 -5 0 -6 -10 -2 -22 l6 -21 -25 20 c-35
27 -126 26 -158 -3 -22 -19 -22 -19 -15 4 4 12 3 22 -2 22 -6 0 -13 -11 -16
-25z m168 -7 c-3 -4 2 -11 10 -14 34 -13 13 -19 -64 -19 -77 0 -98 6 -64 19 8
3 13 10 10 14 -3 5 22 8 54 8 32 0 57 -3 54 -8z m-19 -103 c0 -16 -7 -20 -35
-20 -24 0 -35 5 -36 15 -1 24 4 27 38 26 26 -1 33 -6 33 -21z m2 -177 l33 -32
0 -622 0 -621 66 -6 c65 -5 99 -20 79 -35 -12 -8 -14 -192 -2 -192 5 0 5 -4 2
-10 -3 -5 -3 -16 2 -22 5 -9 10 -1 14 22 6 32 6 31 8 -15 0 -35 -2 -46 -9 -35
-8 13 -45 15 -230 15 -185 0 -222 -2 -230 -15 -7 -11 -9 0 -9 35 2 47 2 48 9
15 6 -35 7 -35 17 -10 10 23 9 119 -2 148 -2 6 0 12 5 12 5 0 7 10 4 23 -10
44 -9 51 16 58 14 4 46 7 73 8 l47 1 0 622 0 622 32 33 c18 18 34 33 37 33 3
0 20 -14 38 -32z m-310 -653 l0 -55 -39 0 c-38 0 -38 0 -38 39 0 22 -3 46 -6
55 -5 13 2 16 39 16 l44 0 0 -55z m43 -25 c0 -47 -4 -80 -10 -80 -6 0 -10 28
-10 64 0 35 -3 71 -6 80 -4 11 -1 16 10 16 13 0 16 -13 16 -80z m486 64 c-3
-9 -6 -45 -6 -80 0 -36 -4 -64 -10 -64 -6 0 -10 33 -10 80 0 67 3 80 16 80 11
0 14 -5 10 -16z m100 0 c-3 -9 -6 -33 -6 -55 0 -39 0 -39 -39 -39 l-38 0 0 55
0 55 44 0 c37 0 44 -3 39 -16z m-1193 -122 c19 -16 28 -73 13 -91 -8 -11 -8
-13 1 -7 9 5 12 -1 9 -23 -2 -17 1 -28 5 -25 5 3 9 3 9 0 0 -2 3 -13 6 -23 5
-15 4 -15 -5 -3 -7 9 -11 10 -11 3 0 -6 5 -15 10 -18 6 -3 10 -11 10 -16 0 -6
-5 -7 -11 -3 -8 5 14 -50 26 -64 1 -1 1 16 0 39 -2 38 -1 41 11 24 8 -11 14
-13 14 -6 0 7 5 9 11 6 6 -5 4 -11 -7 -19 -20 -15 -31 -106 -13 -106 8 0 9
-11 5 -31 -5 -25 -3 -29 12 -25 59 17 115 27 262 45 243 30 241 29 238 12 -4
-21 -41 -28 -221 -41 -87 -6 -184 -19 -215 -27 -32 -9 -64 -16 -74 -17 -13 0
-16 -9 -14 -48 2 -26 -1 -48 -7 -48 -5 0 -7 14 -5 31 3 18 -2 45 -10 62 -10
20 -13 48 -9 91 2 33 3 52 0 41 -3 -11 -9 -22 -13 -25 -10 -7 -21 -82 -11 -75
11 6 22 -35 13 -49 -10 -16 -9 -56 1 -56 5 0 7 9 4 19 -2 10 -1 25 4 32 4 8 8
-15 8 -54 0 -52 -4 -69 -17 -77 -15 -8 -15 -9 -1 -10 9 0 19 -8 22 -19 5 -20
-10 -54 -21 -47 -4 2 -5 -14 -3 -37 l5 -42 7 40 6 40 2 -42 c0 -23 -3 -43 -9
-45 -5 -2 -6 -9 -1 -17 9 -14 15 1 35 92 4 15 11 27 17 27 6 0 8 4 4 9 -3 5 5
17 17 25 12 9 18 16 13 16 -5 0 -20 -10 -33 -22 -21 -20 -24 -20 -19 -5 4 10
10 36 13 58 l6 39 22 -27 c11 -15 20 -29 18 -31 -2 -2 5 -10 15 -18 14 -11 15
-13 2 -8 -15 5 -25 -12 -33 -56 -3 -13 -52 -138 -63 -159 -6 -14 -10 -28 -7
-32 2 -4 -5 -5 -16 -2 -17 5 -18 8 -8 22 9 11 5 10 -9 -3 -26 -22 -65 -27
-217 -28 -89 0 -112 3 -121 16 -7 9 -14 13 -17 10 -4 -3 -9 0 -14 7 -4 8 -3
10 4 5 17 -10 15 10 -3 27 -9 10 -11 17 -4 19 7 2 7 12 -2 31 -9 20 -10 36 -2
62 6 19 7 33 3 30 -9 -5 -18 150 -12 193 2 12 11 22 20 23 11 0 8 4 -8 10 -20
8 -22 12 -10 19 10 7 11 10 2 10 -8 0 -11 10 -8 28 3 15 6 82 8 149 2 68 6
123 9 123 3 0 6 8 6 18 -1 53 4 73 15 70 7 -3 18 1 24 7 17 16 297 13 317 -3z
m1911 7 c-3 -5 7 -4 22 1 27 11 64 5 64 -10 0 -4 7 -7 16 -6 13 1 18 -9 20
-44 1 -25 5 -92 9 -150 3 -58 8 -124 10 -147 3 -29 0 -43 -8 -43 -7 0 -6 -4 3
-10 12 -7 10 -11 -10 -19 -16 -6 -19 -10 -8 -10 21 -1 24 -22 20 -134 -2 -50
-7 -85 -13 -82 -5 4 -5 -5 1 -20 14 -36 13 -82 -2 -88 -10 -4 -10 -7 0 -15 10
-7 10 -11 -3 -22 -18 -15 -20 -34 -2 -24 6 4 9 4 5 0 -3 -4 -9 -7 -13 -6 -4 1
-12 -6 -19 -15 -10 -14 -30 -17 -122 -17 -152 1 -191 6 -217 28 -14 13 -18 14
-9 3 10 -14 9 -17 -6 -21 -10 -3 -19 0 -19 7 0 6 -14 47 -33 90 -18 44 -33 84
-35 90 -11 52 -19 66 -34 61 -15 -6 -15 -5 0 6 9 7 17 18 19 23 1 6 10 20 20
32 l18 23 6 -39 c3 -22 9 -48 13 -58 5 -15 2 -15 -19 5 -13 12 -28 22 -32 22
-5 0 2 -9 15 -20 13 -10 20 -19 16 -20 -5 0 -2 -7 6 -15 8 -7 18 -34 21 -59
10 -64 24 -66 20 -3 -3 49 -2 50 5 12 l8 -40 1 35 c1 19 -5 43 -12 53 -17 22
-9 57 13 57 14 1 14 2 -1 10 -13 8 -17 25 -17 77 0 39 4 62 8 54 5 -7 6 -22 4
-32 -3 -10 -1 -19 4 -19 9 0 10 37 3 65 -5 21 0 46 9 40 11 -6 2 67 -9 75 -4
3 -10 14 -13 25 -3 11 -2 -8 0 -41 4 -43 1 -71 -9 -91 -8 -17 -13 -44 -10 -62
2 -17 0 -31 -6 -31 -5 0 -8 21 -7 48 2 38 -1 48 -14 49 -9 0 -43 8 -76 16 -52
14 -275 37 -357 37 -20 0 -28 5 -28 18 0 14 -2 14 -9 3 -11 -16 -41 -8 -41 12
0 15 2 15 240 -14 147 -18 203 -28 262 -45 15 -4 17 0 12 25 -5 22 -3 31 6 31
9 0 11 11 6 41 -4 25 -3 38 3 34 6 -3 15 4 21 15 8 15 8 20 -1 20 -7 0 -5 10
6 26 9 14 14 28 11 32 -3 3 -6 -1 -6 -8 0 -7 -2 -11 -5 -8 -8 8 6 39 15 33 4
-2 6 9 4 26 -3 22 0 28 9 23 9 -6 9 -5 0 7 -17 21 -2 81 23 94 25 12 236 16
228 4z m-1384 -14 c0 -9 -6 -12 -15 -9 -8 4 -12 10 -9 15 8 14 24 10 24 -6z
m24 -1 c3 -8 2 -12 -4 -9 -6 3 -10 10 -10 16 0 14 7 11 14 -7z m577 -7 c-10
-9 -11 -8 -5 6 3 10 9 15 12 12 3 -3 0 -11 -7 -18z m41 8 c0 -5 -5 -11 -11
-13 -6 -2 -11 4 -11 13 0 9 5 15 11 13 6 -2 11 -8 11 -13z m445 -215 c2 -30 2
-30 -21 -13 -13 10 -22 22 -19 27 3 4 9 3 13 -4 5 -8 9 -7 13 4 9 23 12 20 14
-14z m-1507 -60 c0 -22 -4 -40 -8 -40 -5 0 -9 18 -10 40 -1 22 3 40 8 40 6 0
10 -18 10 -40z m1478 0 c-1 -22 -5 -40 -10 -40 -4 0 -8 18 -8 40 0 22 4 40 10
40 5 0 9 -18 8 -40z m-1018 3 c-1 -18 -18 -35 -24 -24 -4 6 -4 16 -1 21 7 12
25 13 25 3z m-40 -12 c0 -8 -71 -22 -79 -15 -3 3 53 21 72 23 4 1 7 -3 7 -8z
m679 -7 c2 -2 -10 -4 -27 -4 -18 0 -32 5 -32 10 0 9 47 4 59 -6z m-1013 -42
c-9 -14 -46 -22 -46 -10 0 6 -9 3 -20 -7 -11 -10 -20 -16 -20 -12 0 3 -2 12
-5 19 -4 11 6 15 46 17 29 1 48 -2 45 -7z m1384 -4 c0 -14 -22 -19 -35 -8 -9
8 -15 8 -15 2 0 -12 -38 -4 -46 10 -3 5 15 8 45 6 28 -2 51 -6 51 -10z m-1168
-50 c-23 -5 -40 -13 -37 -18 3 -4 -6 -7 -20 -5 -14 1 -25 -1 -25 -6 0 -4 -17
-13 -37 -18 -46 -13 -65 -13 -38 0 17 8 17 9 -5 4 -14 -2 -33 -5 -42 -5 -10 0
-18 -7 -18 -15 0 -14 -3 -14 -24 0 -16 11 -26 13 -31 5 -3 -6 -11 -8 -16 -5
-5 4 -9 1 -9 -4 0 -6 14 -11 30 -11 17 0 30 -5 30 -12 0 -6 12 -26 26 -45 15
-20 23 -41 20 -51 -5 -15 -5 -15 7 -1 11 14 29 0 145 -110 100 -96 132 -132
132 -151 0 -24 0 -24 -30 8 -16 18 -30 31 -30 28 0 -3 -9 2 -19 11 -11 9 -18
20 -15 25 3 4 -1 5 -9 2 -19 -7 -229 180 -277 246 -17 25 -39 102 -25 88 4 -4
17 -2 29 4 31 17 79 20 89 6 6 -9 7 -8 3 4 -4 14 4 18 42 23 26 3 54 8 62 9 8
2 42 4 75 4 l60 0 -43 -10z m1003 -4 c44 -8 89 -16 100 -18 11 -1 30 -8 41
-14 12 -6 25 -8 29 -4 14 14 -8 -63 -25 -88 -48 -66 -258 -253 -277 -246 -8 3
-12 2 -9 -2 3 -5 -4 -16 -15 -25 -10 -9 -19 -14 -19 -11 0 3 -13 -10 -30 -28
-30 -32 -30 -32 -30 -8 0 19 32 55 132 151 116 110 134 124 145 110 12 -14 12
-14 7 1 -3 10 5 31 20 51 14 19 26 39 26 45 0 7 14 12 30 12 32 0 40 14 14 24
-9 4 -27 0 -39 -8 -21 -14 -23 -13 -39 17 -9 18 -15 25 -12 16 4 -14 -4 -16
-50 -15 -30 1 -58 6 -62 12 -4 5 -17 9 -29 8 -13 -1 -23 2 -23 7 0 5 -15 13
-32 18 -32 9 -31 9 17 10 28 0 86 -6 130 -15z m38 -56 c15 -7 27 -18 27 -25 0
-7 -21 -31 -47 -55 -26 -24 -86 -79 -133 -123 -47 -44 -109 -98 -138 -120 -41
-31 -52 -45 -52 -68 0 -17 -4 -26 -11 -22 -6 4 -8 12 -6 19 3 7 1 50 -4 97 -5
46 -11 110 -13 142 l-5 57 42 0 c23 0 80 7 127 16 148 27 192 33 202 31 6 -1
13 4 15 11 4 10 -11 12 -66 9 -78 -3 -76 8 4 19 39 5 45 9 30 15 -11 4 -15 8
-9 8 5 1 22 -5 37 -11z m-1098 -30 c2 -2 -28 -2 -67 0 -57 4 -69 2 -65 -9 2
-8 9 -13 15 -12 10 2 54 -4 202 -31 47 -9 104 -16 127 -16 l42 0 -5 -57 c-2
-32 -8 -96 -13 -142 -5 -47 -7 -90 -4 -97 2 -7 0 -15 -6 -19 -7 -4 -11 5 -11
22 0 23 -11 37 -52 68 -29 22 -91 76 -138 120 -47 44 -107 99 -133 123 -74 68
-60 88 46 66 32 -6 60 -14 62 -16z m42 -4 c-3 -3 -12 -4 -19 -1 -8 3 -5 6 6 6
11 1 17 -2 13 -5z m910 0 c-3 -3 -12 -4 -19 -1 -8 3 -5 6 6 6 11 1 17 -2 13
-5z m-1235 -85 c-3 -21 -7 -27 -13 -18 -4 7 -4 20 0 28 5 9 6 23 4 31 -3 11
-2 12 4 2 5 -7 7 -26 5 -43z m1546 34 c0 -10 0 -22 2 -28 1 -5 1 -17 0 -25 -1
-8 -5 -1 -9 15 -7 27 -4 55 4 55 2 0 3 -8 3 -17z m-1001 -180 c-2 -16 -4 -5
-4 22 0 28 2 40 4 28 2 -13 2 -35 0 -50z m450 -5 c-2 -13 -4 -5 -4 17 -1 22 1
32 4 23 2 -10 2 -28 0 -40z m-517 -150 c0 -30 -9 -35 -28 -16 -13 13 -16 60
-5 71 10 11 32 -26 33 -55z m620 23 c0 -26 -16 -51 -32 -51 -12 0 -10 48 4 69
15 25 28 17 28 -18z m-603 -68 c-3 -10 -5 -4 -5 12 0 17 2 24 5 18 2 -7 2 -21
0 -30z m550 0 c-3 -10 -5 -4 -5 12 0 17 2 24 5 18 2 -7 2 -21 0 -30z m83 -728
c14 -19 14 -19 -2 -6 -10 7 -18 18 -18 24 0 6 1 8 3 6 1 -2 9 -13 17 -24z
m-1055 -35 c-3 -5 -14 -10 -23 -9 -14 0 -13 2 3 9 27 11 27 11 20 0z m1416 -8
c-7 -2 -18 1 -23 6 -8 8 -4 9 13 5 13 -4 18 -8 10 -11z"/>
<path d="M2990 8470 c0 -5 5 -10 10 -10 6 0 10 5 10 10 0 6 -4 10 -10 10 -5 0
-10 -4 -10 -10z"/>
<path d="M2990 7845 c0 -297 3 -455 10 -455 7 0 10 158 10 455 0 297 -3 455
-10 455 -7 0 -10 -158 -10 -455z"/>
<path d="M2990 7215 c0 -90 4 -145 10 -145 6 0 10 55 10 145 0 90 -4 145 -10
145 -6 0 -10 -55 -10 -145z"/>
<path d="M2990 7045 c0 -8 5 -15 10 -15 6 0 10 7 10 15 0 8 -4 15 -10 15 -5 0
-10 -7 -10 -15z"/>
<path d="M2095 7420 c3 -5 8 -10 11 -10 2 0 4 5 4 10 0 6 -5 10 -11 10 -5 0
-7 -4 -4 -10z"/>
<path d="M2186 7317 c3 -10 9 -15 12 -12 3 3 0 11 -7 18 -10 9 -11 8 -5 -6z"/>
<path d="M2141 7214 c0 -11 3 -14 6 -6 3 7 2 16 -1 19 -3 4 -6 -2 -5 -13z"/>
<path d="M2192 7035 c0 -16 2 -22 5 -12 2 9 2 23 0 30 -3 6 -5 -1 -5 -18z"/>
<path d="M2170 6963 c14 -22 30 -22 30 -1 0 6 -3 8 -7 5 -3 -4 -13 -1 -21 6
-13 11 -14 9 -2 -10z"/>
<path d="M3805 7319 c-4 -6 -5 -12 -2 -15 2 -3 7 2 10 11 7 17 1 20 -8 4z"/>
<path d="M3851 7214 c0 -11 3 -14 6 -6 3 7 2 16 -1 19 -3 4 -6 -2 -5 -13z"/>
<path d="M4157 7185 c-4 -8 -3 -16 1 -19 4 -3 9 4 9 15 2 23 -3 25 -10 4z"/>
<path d="M3802 7035 c0 -16 2 -22 5 -12 2 9 2 23 0 30 -3 6 -5 -1 -5 -18z"/>
<path d="M3800 6959 c0 -15 18 -19 23 -6 3 8 -1 14 -9 14 -8 0 -14 -4 -14 -8z"/>
<path d="M2436 7138 c3 -4 12 -8 20 -8 8 0 14 4 14 8 0 4 -9 8 -19 8 -11 0
-17 -4 -15 -8z"/>
<path d="M3530 7140 c0 -5 5 -10 11 -10 5 0 7 5 4 10 -3 6 -8 10 -11 10 -2 0
-4 -4 -4 -10z"/>
<path d="M2816 8575 c-3 -8 -1 -15 4 -15 6 0 10 7 10 15 0 8 -2 15 -4 15 -2 0
-6 -7 -10 -15z"/>
<path d="M3170 8575 c0 -8 4 -15 10 -15 5 0 7 7 4 15 -4 8 -8 15 -10 15 -2 0
-4 -7 -4 -15z"/>
<path d="M2539 8533 c-13 -15 -12 -15 11 -3 34 17 36 20 18 20 -9 0 -22 -7
-29 -17z"/>
<path d="M3430 8545 c0 -2 10 -10 23 -16 20 -11 21 -11 8 4 -13 16 -31 23 -31
12z"/>
<path d="M2710 8499 c0 -5 5 -7 10 -4 6 3 10 8 10 11 0 2 -4 4 -10 4 -5 0 -10
-5 -10 -11z"/>
<path d="M3275 8500 c3 -5 8 -10 11 -10 2 0 4 5 4 10 0 6 -5 10 -11 10 -5 0
-7 -4 -4 -10z"/>
<path d="M2837 8466 c-9 -10 -17 -21 -17 -26 0 -5 -7 -7 -15 -4 -8 4 -15 2
-15 -3 0 -5 -10 -9 -22 -9 -23 0 -93 -28 -161 -65 -23 -12 -46 -18 -59 -13
-13 4 -18 2 -14 -4 10 -16 -33 -25 -50 -11 -8 6 -17 9 -21 5 -3 -3 -1 -6 5 -6
7 0 12 -7 12 -16 0 -11 -6 -15 -20 -11 -11 3 -20 1 -20 -3 0 -17 -45 -5 -70
17 -26 24 -50 30 -50 13 0 -5 3 -10 8 -10 4 0 21 -11 37 -24 l30 -24 -25 -10
c-73 -28 -70 -29 -71 35 -1 44 -3 52 -9 33 -4 -14 -8 -42 -9 -62 -1 -36 -2
-37 -27 -27 -15 5 -29 7 -32 4 -3 -3 1 -5 9 -6 8 0 5 -4 -6 -8 -12 -5 -23 -4
-27 3 -5 6 -8 2 -8 -11 0 -13 2 -23 4 -23 24 0 176 47 269 84 66 25 124 43
130 39 6 -4 7 -1 2 7 -6 10 -4 12 7 8 8 -4 46 4 83 17 65 23 106 45 55 30 -18
-5 -22 -4 -14 4 6 6 21 14 35 17 13 3 31 7 39 9 8 2 23 4 34 4 11 1 16 6 13
15 -3 8 -1 16 5 18 6 2 9 10 7 17 -4 11 -9 10 -22 -3z m-142 -96 c-27 -12 -43
-12 -25 0 8 5 22 9 30 9 10 0 8 -3 -5 -9z"/>
<path d="M3140 8470 c0 -5 4 -11 10 -15 5 -3 7 -12 3 -20 -3 -10 1 -15 13 -16
11 0 26 -2 34 -4 8 -2 26 -6 39 -9 14 -3 29 -11 35 -17 8 -8 4 -9 -14 -4 -51
15 -10 -7 55 -30 37 -13 75 -21 83 -17 11 4 13 2 7 -8 -5 -8 -4 -11 2 -7 6 4
64 -14 130 -39 93 -37 245 -84 269 -84 2 0 4 10 3 23 0 12 -3 17 -5 11 -3 -8
-16 -8 -44 0 -35 9 -40 14 -41 41 -1 16 -5 41 -9 55 -6 19 -8 11 -9 -33 -1
-64 2 -62 -71 -35 l-25 10 24 19 c13 11 31 24 40 29 9 5 13 12 9 15 -7 7 -68
-25 -68 -36 0 -4 -11 -6 -25 -6 -14 0 -25 3 -25 7 0 5 -9 6 -20 3 -11 -3 -20
0 -20 6 0 6 -7 11 -16 11 -8 0 -12 5 -8 11 4 8 -1 9 -16 4 -16 -5 -20 -4 -15
5 5 9 2 10 -13 6 -13 -5 -36 1 -59 13 -65 35 -137 64 -163 67 -14 1 -27 3 -30
4 -3 1 -8 2 -12 1 -4 0 -9 8 -13 18 -6 20 -35 37 -35 21z m190 -100 c18 -12 2
-12 -25 0 -13 6 -15 9 -5 9 8 0 22 -4 30 -9z"/>
<path d="M3856 8427 c3 -10 9 -15 12 -12 3 3 0 11 -7 18 -10 9 -11 8 -5 -6z"/>
<path d="M2223 8385 c0 -27 2 -38 4 -22 2 15 2 37 0 50 -2 12 -4 0 -4 -28z"/>
<path d="M3773 8385 c0 -27 2 -38 4 -22 2 15 2 37 0 50 -2 12 -4 0 -4 -28z"/>
<path d="M2121 8394 c0 -11 3 -14 6 -6 3 7 2 16 -1 19 -3 4 -6 -2 -5 -13z"/>
<path d="M2630 8400 c-21 -7 -21 -8 -5 -9 11 0 27 4 35 9 18 11 5 11 -30 0z"/>
<path d="M3340 8400 c8 -5 24 -10 34 -10 26 0 18 6 -19 14 -22 5 -26 4 -15 -4z"/>
<path d="M2721 8344 c-18 -13 -60 -29 -92 -35 -33 -6 -62 -15 -64 -20 -6 -9
62 -4 90 7 18 7 18 6 -2 -15 -15 -16 -28 -21 -40 -17 -14 6 -16 5 -5 -5 15
-16 16 -33 0 -23 -7 5 -8 3 -3 -6 6 -10 4 -12 -7 -7 -11 4 -14 1 -11 -12 6
-23 -44 -58 -172 -121 -49 -25 -92 -48 -95 -51 -3 -4 -16 -2 -30 3 -22 8 -23
11 -9 21 9 7 14 21 11 32 -8 40 -7 80 3 87 5 4 1 6 -10 6 -18 -2 -21 -10 -23
-80 -1 -47 2 -78 8 -78 5 0 10 -7 10 -15 0 -8 1 -15 3 -15 23 0 317 172 317
185 0 30 117 115 134 98 9 -10 7 -33 -3 -33 -5 0 -34 -14 -64 -32 -37 -21 -53
-36 -50 -45 3 -8 9 -11 12 -6 13 19 62 43 73 37 7 -5 8 -3 3 6 -6 10 -4 12 11
6 10 -4 15 -4 11 0 -4 4 3 15 15 23 21 14 36 67 16 55 -4 -3 -8 0 -8 5 0 6 -7
11 -16 11 -8 0 -12 5 -9 10 4 6 16 8 28 5 17 -5 19 -4 7 4 -13 10 -8 15 12 12
4 0 5 6 2 14 -8 19 -12 18 -53 -11z m-14 -40 c-3 -3 -12 -4 -19 -1 -8 3 -5 6
6 6 11 1 17 -2 13 -5z"/>
<path d="M3226 8355 c-3 -8 -2 -14 2 -14 20 3 25 -2 12 -12 -12 -8 -10 -9 7
-4 12 3 24 1 28 -5 3 -5 -1 -10 -9 -10 -9 0 -16 -5 -16 -11 0 -5 -4 -8 -8 -5
-20 12 -5 -41 16 -55 12 -8 19 -19 15 -23 -4 -4 1 -4 11 0 15 6 17 4 11 -6 -5
-9 -4 -11 3 -6 6 4 29 -5 52 -19 26 -17 40 -21 40 -12 0 12 -102 77 -121 77
-10 0 -12 23 -3 33 13 12 65 -17 99 -56 20 -23 42 -49 50 -57 15 -17 182 -112
256 -146 39 -18 49 -20 49 -9 0 8 5 15 10 15 6 0 9 31 8 79 -2 64 -5 78 -17
73 -10 -4 -12 -1 -6 8 5 8 4 11 -3 6 -8 -4 -8 -15 -1 -36 6 -17 7 -36 2 -47
-13 -25 -11 -42 7 -53 12 -7 10 -11 -10 -18 -17 -6 -27 -6 -32 2 -4 6 -8 7 -8
3 0 -5 -12 0 -27 11 -16 11 -55 32 -87 47 -94 44 -148 85 -143 106 3 13 0 16
-11 12 -11 -5 -13 -3 -7 7 5 9 4 11 -3 6 -16 -10 -15 7 1 23 10 10 8 11 -6 5
-12 -4 -25 1 -40 17 -20 21 -20 22 -2 15 28 -11 96 -16 90 -7 -2 5 -31 14 -64
20 -32 6 -76 23 -96 36 -42 29 -41 29 -49 10z m504 -265 c0 -5 -2 -10 -4 -10
-3 0 -8 5 -11 10 -3 6 -1 10 4 10 6 0 11 -4 11 -10z"/>
<path d="M2822 8325 c0 -16 2 -22 5 -12 2 9 2 23 0 30 -3 6 -5 -1 -5 -18z"/>
<path d="M2841 8334 c0 -11 3 -14 6 -6 3 7 2 16 -1 19 -3 4 -6 -2 -5 -13z"/>
<path d="M3172 8325 c0 -16 2 -22 5 -12 2 9 2 23 0 30 -3 6 -5 -1 -5 -18z"/>
<path d="M2192 8295 c0 -16 2 -22 5 -12 2 9 2 23 0 30 -3 6 -5 -1 -5 -18z"/>
<path d="M3802 8295 c0 -16 2 -22 5 -12 2 9 2 23 0 30 -3 6 -5 -1 -5 -18z"/>
<path d="M2830 8225 c-4 -38 -9 -49 -20 -47 -12 3 -13 1 -2 -9 20 -21 34 4 30
57 l-4 49 -4 -50z"/>
<path d="M3162 8223 c-2 -53 11 -74 31 -53 9 9 8 11 -3 8 -11 -2 -17 10 -21
47 l-6 50 -1 -52z"/>
<path d="M2745 8220 c-3 -6 1 -7 9 -4 18 7 21 14 7 14 -6 0 -13 -4 -16 -10z"/>
<path d="M3230 8226 c0 -2 7 -7 16 -10 8 -3 12 -2 9 4 -6 10 -25 14 -25 6z"/>
<path d="M2737 8189 c7 -7 15 -10 18 -7 3 3 -2 9 -12 12 -14 6 -15 5 -6 -5z"/>
<path d="M2220 8164 c-23 -12 -23 -14 -4 -14 17 0 21 -7 23 -45 1 -35 -2 -45
-13 -45 -15 0 -42 -38 -33 -47 3 -2 8 5 12 16 7 23 30 28 38 9 3 -7 6 22 6 65
1 42 0 77 -1 76 -2 -1 -14 -7 -28 -15z"/>
<path d="M3751 8102 c0 -43 3 -71 6 -64 8 19 29 14 41 -10 6 -13 11 -17 11
-10 1 7 -10 23 -24 36 -19 18 -22 25 -12 36 9 10 9 11 0 6 -14 -8 -16 -2 -7
31 3 12 12 23 20 25 8 2 4 8 -11 15 l-25 11 1 -76z"/>
<path d="M2270 7918 c0 -38 3 -49 10 -38 6 8 7 28 4 44 -4 19 -1 31 7 37 11 7
10 9 -3 9 -15 0 -18 -9 -18 -52z"/>
<path d="M3708 7964 c16 -7 16 -51 0 -56 -9 -3 -8 -9 5 -22 16 -17 17 -15 17
23 0 23 0 44 1 49 0 4 -8 8 -18 9 -10 2 -12 0 -5 -3z"/>
<path d="M3145 6688 c26 -20 27 -25 23 -90 -3 -56 -1 -68 11 -63 10 4 11 2 4
-7 -5 -7 -8 -19 -7 -25 1 -7 2 -22 3 -33 0 -11 5 -20 9 -20 4 0 7 47 7 105 -2
96 -4 108 -25 130 -13 14 -30 25 -38 25 -9 0 -4 -8 13 -22z"/>
<path d="M2760 6640 c0 -26 -3 -82 -7 -125 -4 -51 -3 -76 4 -72 5 3 11 28 12
54 1 26 5 80 9 119 6 55 5 71 -5 71 -9 0 -13 -16 -13 -47z"/>
<path d="M2969 6688 c-7 -40 -4 -81 8 -85 11 -5 11 -7 0 -17 -9 -7 -14 -28
-13 -56 1 -45 1 -45 36 -45 35 0 35 0 36 45 1 28 -4 49 -13 56 -12 10 -12 12
1 17 9 4 13 18 12 44 -3 35 -6 38 -34 41 -18 2 -32 2 -33 0z m47 -54 c2 -14
-2 -20 -16 -20 -18 0 -19 6 -11 44 3 12 25 -8 27 -24z m4 -109 c0 -28 -4 -35
-20 -35 -16 0 -20 7 -20 35 0 28 4 35 20 35 16 0 20 -7 20 -35z"/>
<path d="M3225 6578 c6 -62 7 -109 2 -111 -5 -1 -1 -9 9 -17 16 -14 17 -11 11
64 -4 43 -7 100 -7 126 0 31 -4 47 -13 47 -10 0 -10 -22 -2 -109z"/>
<path d="M2780 6431 c-33 -6 -35 -8 -37 -51 -7 -124 -36 -382 -49 -433 -17
-72 -18 -67 6 -67 13 0 25 10 32 28 6 15 21 47 33 72 29 58 44 148 52 310 l6
129 177 0 177 0 6 -122 c8 -162 24 -262 52 -317 12 -25 27 -57 33 -72 15 -36
58 -41 48 -5 -23 82 -56 353 -56 463 0 31 -5 56 -12 61 -15 9 -417 13 -468 4z
m13 -163 c-2 -79 -8 -154 -12 -168 -13 -35 -25 -84 -23 -92 1 -5 -8 -18 -20
-30 -19 -19 -21 -19 -13 -2 4 10 9 37 10 59 2 22 5 67 8 100 4 33 9 100 12
150 4 62 10 94 22 107 9 10 17 18 18 18 1 0 0 -64 -2 -142z m441 114 c3 -10 8
-56 11 -102 3 -47 8 -110 11 -140 3 -30 7 -75 9 -100 1 -25 6 -54 11 -64 7
-18 6 -18 -13 1 -12 12 -24 40 -28 64 -4 24 -11 51 -16 60 -4 8 -9 79 -11 157
-3 108 -1 142 8 142 7 0 15 -8 18 -18z"/>
<path d="M2990 6290 c0 -5 5 -10 10 -10 6 0 10 5 10 10 0 6 -4 10 -10 10 -5 0
-10 -4 -10 -10z"/>
<path d="M2956 6267 c-4 -15 -8 -18 -14 -10 -5 8 -8 -1 -8 -22 0 -22 3 -30 9
-22 5 7 7 -24 4 -75 -3 -69 0 -88 11 -93 9 -3 13 -14 10 -30 -5 -25 6 -35 14
-12 10 30 9 247 -1 247 -5 0 -13 -5 -17 -12 -4 -7 -3 -8 4 -4 14 8 15 -72 3
-114 -6 -18 -9 -4 -13 50 -4 56 -1 79 9 92 8 9 10 18 5 22 -5 3 -12 -4 -16
-17z"/>
<path d="M3027 6284 c-4 -4 -1 -14 6 -23 10 -12 12 -37 9 -91 -4 -54 -7 -68
-13 -50 -12 42 -11 122 3 114 7 -4 8 -3 4 4 -4 7 -12 12 -17 12 -10 0 -11
-217 -1 -247 8 -23 19 -13 14 12 -3 16 1 27 10 30 11 5 14 24 11 93 -3 51 -1
82 4 75 6 -8 9 0 9 22 0 19 -3 29 -7 23 -6 -9 -11 -5 -16 10 -5 13 -12 20 -16
16z"/>
<path d="M1965 6249 c-33 -4 -75 -5 -92 -2 l-33 5 0 -46 c0 -25 4 -54 9 -64 5
-9 14 -53 19 -97 11 -81 70 -298 137 -497 35 -105 36 -112 40 -300 30 -1184
47 -1762 61 -2005 l6 -103 -89 -2 c-250 -4 -248 -3 -264 -149 -14 -115 -6
-672 9 -710 6 -14 27 -36 48 -48 35 -21 46 -22 232 -19 l195 3 -6 -287 c-4
-182 -3 -289 3 -293 6 -3 10 3 10 15 0 12 4 19 8 16 5 -3 59 19 121 49 l112
55 220 -7 219 -6 0 -24 c0 -22 3 -23 70 -23 67 0 70 1 70 23 l0 24 219 6 220
7 112 -55 c62 -30 116 -52 121 -49 4 3 8 -4 8 -16 0 -12 4 -18 10 -15 6 4 7
111 3 293 l-6 287 195 -3 c186 -3 197 -2 232 19 21 12 42 34 48 48 15 38 23
595 9 710 -16 146 -14 145 -264 149 l-89 2 6 93 c12 191 31 828 61 2019 3 142
9 208 20 235 59 150 165 544 165 615 0 20 5 40 10 43 6 3 10 29 10 57 l0 51
-30 -7 c-17 -3 -65 -1 -108 4 -69 9 -80 8 -102 -8 -24 -18 -26 -28 -47 -232
-18 -179 -19 -216 -8 -234 7 -12 16 -37 19 -56 5 -26 4 -31 -3 -19 -6 9 -24
22 -41 29 -20 8 -29 18 -26 27 4 11 1 11 -14 3 -16 -8 -22 -7 -32 9 -6 10 -17
17 -24 14 -6 -2 -15 0 -18 5 -3 6 -15 8 -25 5 -27 -7 -61 14 -61 37 0 11 -4
20 -10 20 -5 0 -10 -6 -10 -14 0 -12 -30 -15 -169 -15 l-168 -2 4 26 c3 15 1
25 -6 25 -6 0 -11 -16 -11 -36 0 -20 4 -33 10 -29 5 3 14 -14 20 -37 6 -24 16
-61 22 -83 6 -22 11 -47 11 -55 0 -8 15 -42 33 -75 44 -81 53 -122 55 -242 1
-80 5 -103 15 -103 8 0 14 5 14 11 0 5 5 7 12 3 6 -4 8 -3 5 3 -4 6 0 16 8 23
8 7 15 23 15 36 0 17 6 24 19 24 35 0 40 20 30 119 -6 51 -7 96 -4 99 3 3 5
-4 5 -16 0 -12 6 -22 13 -22 9 0 9 -2 -1 -9 -11 -7 -11 -9 1 -14 8 -3 20 -22
27 -41 6 -20 16 -36 21 -36 5 0 9 -8 9 -18 0 -10 9 -28 21 -41 16 -17 24 -20
35 -10 23 19 17 99 -15 196 -16 48 -31 95 -33 103 -1 8 -6 17 -10 20 -4 3 -14
22 -23 43 -14 34 -14 37 3 46 14 8 22 4 37 -15 10 -13 23 -24 30 -24 20 0 37
-45 32 -84 -3 -20 -1 -36 4 -36 5 0 9 24 9 54 0 30 5 58 10 61 6 4 10 -18 10
-59 0 -42 -4 -66 -12 -69 -10 -4 -10 -6 -1 -6 18 -1 35 38 31 70 -4 23 -2 26
9 17 8 -6 12 -16 9 -23 -2 -7 5 -11 17 -9 12 1 33 -5 46 -13 31 -20 44 -6 45
50 1 29 5 43 12 40 7 -2 10 -19 9 -39 -2 -19 1 -34 6 -34 5 0 9 -7 9 -15 0 -8
7 -15 15 -15 9 0 18 7 21 15 4 8 12 15 19 15 8 0 17 4 20 10 3 5 0 7 -7 5 -9
-4 -14 4 -16 22 -1 17 1 23 6 16 5 -8 8 0 8 20 0 37 22 97 35 97 5 0 9 -7 9
-16 0 -8 -5 -12 -10 -9 -7 4 -8 -3 -4 -21 5 -19 4 -25 -5 -20 -7 5 -11 0 -11
-13 0 -74 39 37 53 149 1 14 7 31 11 39 7 11 5 13 -7 8 -10 -3 -17 -5 -17 -4
0 1 5 18 10 37 17 57 51 184 55 203 7 33 -15 55 -48 50 -18 -3 -33 1 -39 9 -8
10 -9 10 -5 -2 2 -9 20 -17 43 -20 21 -3 38 -10 38 -15 -4 -26 -79 -300 -104
-380 -16 -49 -31 -112 -35 -138 -5 -38 -9 -46 -20 -37 -10 8 -10 21 -3 53 5
23 7 52 5 64 -2 12 -1 21 3 18 6 -4 71 372 70 410 -1 20 -1 20 -12 1 -6 -11
-11 -32 -10 -48 0 -16 -3 -26 -8 -23 -5 3 -9 -7 -9 -22 0 -15 -2 -50 -5 -78
-2 -27 -8 -80 -11 -117 -4 -42 -11 -66 -17 -62 -6 4 -8 -1 -4 -14 4 -12 2 -23
-5 -28 -8 -4 -9 -3 -5 4 4 7 2 12 -3 12 -6 0 -10 3 -10 8 1 4 0 10 -1 15 -7
20 -4 64 4 60 4 -3 6 3 3 13 -4 11 -1 51 6 89 7 39 12 102 12 141 0 41 4 67 8
60 5 -6 7 0 4 17 -2 15 0 27 4 27 5 0 9 7 9 17 0 14 2 15 18 1 11 -11 24 -13
37 -8 31 13 57 12 49 -2 -4 -7 -3 -8 4 -4 23 14 82 13 82 -1 0 -8 -5 -11 -12
-7 -7 4 -8 3 -4 -4 4 -7 9 -21 11 -33 3 -16 0 -19 -13 -14 -9 3 -13 3 -9 -1 4
-4 2 -13 -4 -21 -9 -9 -8 -13 0 -13 6 0 11 -7 11 -16 0 -8 -4 -12 -10 -9 -6 3
-10 1 -10 -4 0 -6 4 -11 9 -11 4 0 6 -11 3 -25 -2 -14 -9 -25 -14 -25 -5 0 -7
-4 -4 -9 3 -5 -7 -67 -24 -138 -34 -151 -43 -182 -61 -214 -7 -13 -15 -35 -16
-49 -2 -14 -8 -34 -13 -45 -5 -11 -14 -37 -20 -57 -6 -21 -16 -38 -21 -38 -5
0 -9 -7 -9 -15 0 -8 -5 -15 -11 -15 -5 0 -7 -5 -4 -10 4 -7 11 -8 18 -2 9 8
12 -21 13 -112 0 -66 -1 -107 -3 -91 -7 52 -34 186 -49 235 -13 45 -74 136
-74 110 0 -6 9 -23 20 -37 39 -50 88 -261 59 -251 -8 3 -18 35 -25 82 -14 85
-35 146 -65 184 -22 29 -25 13 -4 -27 8 -16 11 -32 7 -36 -4 -5 -2 -5 4 -2 13
8 34 -83 34 -147 0 -31 6 -45 27 -63 20 -18 29 -20 34 -11 6 9 8 6 7 -7 -1
-30 12 -235 17 -270 3 -19 2 -25 -4 -17 -5 8 -11 -28 -16 -95 -4 -59 -9 -133
-11 -163 -2 -30 -6 -68 -10 -85 -4 -16 -8 -41 -9 -55 -9 -121 -43 -294 -84
-427 -5 -18 -8 -33 -6 -33 2 0 -8 -33 -22 -72 -14 -40 -26 -77 -28 -83 -1 -5
-7 -23 -13 -38 -7 -16 -12 -31 -12 -34 0 -4 -9 -27 -21 -52 -11 -25 -28 -63
-37 -83 -16 -35 -32 -50 -32 -30 0 11 -67 81 -102 106 -15 11 -24 24 -22 28 3
5 1 7 -5 6 -14 -4 -37 35 -69 112 l-11 25 0 -30 c-1 -42 50 -126 101 -166 90
-71 121 -125 97 -168 -9 -14 -22 -37 -30 -51 -8 -14 -16 -27 -19 -30 -20 -20
-52 -76 -56 -97 -3 -14 -17 -41 -32 -61 -29 -38 -42 -102 -16 -81 8 6 13 19
12 28 -2 9 3 15 10 13 8 -1 11 2 7 8 -7 12 11 12 40 1 22 -9 78 6 70 19 -6 9
35 63 43 56 2 -3 -1 -12 -8 -21 -11 -13 -10 -14 6 -9 18 7 18 6 -1 -16 -11
-13 -14 -20 -8 -16 9 5 11 2 7 -8 -3 -9 -11 -13 -17 -9 -5 3 -7 1 -3 -5 3 -6
-3 -26 -14 -44 -18 -29 -83 -162 -126 -255 -8 -18 -19 -35 -24 -38 -12 -7 -25
16 -13 24 15 9 24 59 13 66 -17 10 -80 13 -80 4 0 -5 18 -9 40 -9 22 0 40 -3
40 -6 0 -5 -20 -45 -26 -52 -1 -2 -30 23 -63 56 -39 39 -57 63 -49 68 7 5 8 3
3 -6 -5 -8 -4 -11 3 -6 6 4 8 14 5 23 -4 11 -3 14 5 9 7 -4 12 -1 12 9 0 9 4
14 9 11 5 -3 8 2 7 12 0 9 4 16 11 15 7 -2 10 4 7 12 -5 11 -1 14 12 9 18 -6
18 -6 2 11 -13 14 -14 22 -5 36 9 15 6 29 -17 74 -15 31 -33 84 -39 119 -10
58 -7 81 26 252 48 253 47 247 30 232 -8 -6 -12 -20 -10 -30 3 -10 1 -18 -5
-18 -5 0 -7 -4 -3 -10 3 -5 -3 -46 -15 -91 -11 -45 -20 -97 -20 -115 0 -18 -4
-35 -9 -38 -5 -3 -12 -38 -16 -77 -5 -50 -10 -67 -17 -58 -7 10 -8 8 -3 -7 3
-12 0 -34 -6 -50 -6 -16 -16 -45 -21 -64 -33 -125 -33 -122 -44 -205 -10 -77
5 -48 31 61 13 55 32 133 42 174 l19 75 6 -67 c3 -36 16 -95 29 -131 l23 -64
-34 -44 c-19 -24 -36 -46 -38 -49 -2 -3 -9 3 -16 13 -7 9 -17 17 -22 17 -9 0
-26 -34 -39 -80 -4 -13 -14 -31 -22 -39 -9 -9 -13 -28 -11 -51 2 -21 -2 -42
-9 -49 -7 -6 -13 -17 -13 -23 0 -7 6 -3 14 7 12 16 16 17 30 6 14 -12 16 -10
16 12 0 14 4 28 8 31 12 7 151 -106 152 -124 0 -10 3 -11 12 -2 8 8 -1 25 -38
69 -52 61 -111 123 -119 123 -9 0 -34 -58 -28 -64 4 -3 1 -6 -5 -6 -26 0 -7
66 21 74 19 5 20 8 7 16 -8 5 -10 10 -5 10 6 0 21 -10 35 -21 14 -11 18 -17
10 -13 -20 10 -14 3 38 -40 24 -20 41 -36 36 -36 -4 0 2 -8 13 -17 11 -10 18
-25 16 -33 -4 -13 -3 -13 6 0 10 13 13 13 22 -3 5 -9 28 -34 50 -54 31 -28 36
-39 27 -50 -15 -19 24 -50 56 -44 5 1 6 -5 2 -14 -3 -9 -2 -13 4 -10 6 3 10
-5 10 -19 0 -32 -21 -85 -27 -68 -7 18 -319 17 -326 -1 -12 -32 8 -35 173 -32
91 2 173 4 183 4 33 2 41 43 22 105 -17 54 -57 97 -70 76 -3 -6 -10 -10 -16
-10 -5 0 5 13 23 30 l33 30 28 -30 c15 -17 27 -41 27 -53 0 -13 4 -27 9 -32 5
-6 11 -28 13 -50 3 -22 8 -47 12 -57 6 -14 -3 -17 -76 -22 -46 -3 -156 -7
-245 -10 -136 -3 -163 -1 -163 11 0 8 -4 12 -9 9 -5 -4 -11 0 -14 6 -3 8 -8 4
-14 -11 l-9 -23 -26 30 -25 30 -1 -31 c0 -17 4 -37 10 -44 7 -9 7 -13 -1 -13
-6 0 -11 -8 -11 -18 0 -10 -7 -27 -16 -38 -15 -18 -15 -17 -10 15 3 18 6 58 6
87 0 44 3 54 18 55 10 0 12 3 4 6 -6 2 -9 10 -6 15 4 7 2 8 -5 4 -6 -4 -18 -2
-26 4 -12 10 -18 10 -30 0 -8 -6 -20 -8 -26 -4 -7 4 -9 3 -5 -4 3 -5 0 -13 -6
-15 -8 -3 -6 -6 5 -6 14 -1 17 -11 17 -55 0 -29 3 -69 6 -87 5 -32 5 -33 -10
-15 -9 11 -16 28 -16 38 0 10 -5 18 -11 18 -8 0 -8 4 -1 13 6 7 10 27 10 44
l-1 31 -25 -30 -26 -30 -9 23 c-6 15 -11 19 -14 11 -3 -6 -9 -10 -14 -6 -5 3
-9 -1 -9 -9 0 -12 -27 -14 -162 -11 -90 3 -200 7 -246 10 -73 5 -82 8 -76 22
4 10 9 35 12 57 2 22 8 44 13 50 5 5 9 19 9 32 0 12 12 36 28 53 l27 30 33
-30 c18 -17 28 -30 23 -30 -6 0 -13 4 -16 10 -13 21 -53 -22 -70 -76 -19 -62
-11 -103 22 -105 157 -7 353 -6 353 3 0 6 9 8 21 5 12 -3 22 0 26 9 3 8 11 14
18 14 8 0 16 10 18 23 3 14 5 8 6 -15 1 -40 17 -59 28 -33 3 10 0 21 -7 25 -7
4 -10 12 -6 18 3 5 0 15 -8 21 -10 8 -19 6 -39 -9 -26 -21 -42 -26 -33 -11 3
5 -21 12 -54 15 -33 4 -59 10 -56 14 2 4 -10 7 -27 8 -18 1 -54 4 -82 8 -54 8
-125 -9 -132 -31 -4 -10 3 -10 27 -2 17 7 58 9 93 6 34 -4 97 -9 140 -13 64
-5 77 -10 75 -23 -2 -12 -16 -16 -53 -18 l-50 -1 40 8 c22 4 43 6 48 3 4 -2 7
1 7 6 0 17 -317 15 -323 -1 -6 -17 -27 36 -27 68 0 14 4 22 10 19 6 -3 7 1 4
10 -4 9 -3 15 2 14 16 -3 29 1 48 16 15 11 16 17 8 28 -9 11 -4 22 27 50 22
20 45 45 50 54 9 16 12 16 22 3 9 -13 10 -13 6 0 -2 9 21 40 55 74 33 32 54
55 46 51 -7 -4 -2 3 12 14 14 11 30 21 35 21 6 0 3 -5 -5 -10 -13 -8 -12 -11
7 -16 28 -8 47 -74 21 -74 -6 0 -9 3 -5 6 6 6 -19 64 -28 64 -8 0 -67 -62
-119 -123 -37 -44 -46 -61 -38 -69 9 -9 12 -8 12 2 1 18 140 131 152 124 4 -3
8 -17 8 -31 0 -22 2 -24 16 -12 14 11 18 10 30 -6 8 -10 14 -14 14 -7 0 6 -6
17 -13 23 -7 7 -11 28 -9 49 2 23 -2 42 -11 51 -8 8 -18 26 -22 39 -13 46 -30
80 -39 80 -5 0 -15 -8 -22 -17 -7 -10 -14 -16 -16 -13 -2 3 -19 25 -38 49
l-34 44 23 64 c13 36 26 95 29 131 l6 67 19 -75 c10 -41 29 -119 42 -174 26
-109 41 -138 31 -61 -10 70 -12 85 -24 130 -24 89 -31 112 -45 150 -8 22 -17
70 -21 107 -4 37 -11 70 -15 72 -4 3 -8 20 -9 38 -1 18 -9 65 -18 103 -9 39
-17 80 -18 93 0 12 -4 22 -8 22 -3 0 -4 8 -1 18 2 10 -2 24 -10 30 -17 15 -18
21 30 -232 33 -171 36 -194 26 -252 -6 -35 -24 -88 -39 -119 -23 -45 -26 -59
-17 -74 9 -14 8 -22 -5 -36 -16 -17 -16 -17 2 -11 13 5 17 2 12 -9 -3 -8 0
-14 7 -12 7 1 11 -6 11 -15 -1 -10 2 -15 7 -12 5 3 9 -2 9 -11 0 -10 5 -13 12
-9 8 5 9 2 5 -9 -3 -9 -1 -19 5 -23 7 -5 8 -2 3 6 -5 9 -4 11 3 6 8 -5 -10
-29 -49 -68 -33 -33 -62 -58 -63 -56 -6 7 -26 47 -26 52 0 3 18 6 40 6 22 0
40 4 40 10 0 10 -62 6 -80 -5 -12 -7 -2 -57 13 -66 12 -8 -1 -31 -13 -24 -5 3
-16 20 -24 38 -43 93 -108 226 -126 255 -11 18 -17 38 -14 44 4 6 2 8 -3 5 -6
-4 -14 0 -17 9 -4 10 -2 13 7 8 6 -4 5 1 -4 12 -10 11 -14 26 -10 37 6 16 9
16 30 -7 13 -13 20 -29 17 -34 -9 -14 45 -31 69 -21 29 11 47 11 40 -1 -4 -6
-1 -9 7 -8 7 2 12 -4 10 -13 -1 -9 4 -22 12 -28 26 -21 13 43 -16 81 -15 20
-29 47 -32 61 -4 21 -36 77 -56 97 -3 3 -11 16 -19 30 -8 14 -21 37 -30 51
-24 43 7 97 97 168 51 40 102 124 101 166 l0 30 -11 -25 c-26 -61 -58 -115
-69 -112 -6 1 -8 -1 -5 -6 2 -4 -7 -17 -22 -28 -35 -25 -102 -95 -102 -106 0
-20 -16 -5 -32 30 -9 20 -26 58 -37 83 -12 25 -21 48 -21 52 0 3 -5 18 -12 34
-6 15 -12 33 -13 38 -2 6 -14 43 -28 83 -14 39 -24 72 -22 72 2 0 -1 15 -6 33
-43 138 -71 281 -84 422 -1 17 -5 46 -9 65 -9 53 -14 114 -22 238 -4 69 -10
109 -15 100 -5 -7 -9 -8 -9 -3 0 6 4 15 10 21 5 5 10 72 11 148 0 76 4 134 8
127 5 -8 15 -5 33 11 22 20 26 34 31 96 4 43 13 85 23 99 9 14 11 22 5 18 -7
-3 -3 8 9 27 25 41 26 56 1 34 -26 -24 -51 -94 -65 -183 -7 -46 -17 -78 -25
-81 -29 -10 20 201 59 251 11 14 20 31 20 37 0 26 -61 -65 -74 -110 -15 -49
-42 -183 -49 -235 -2 -16 -3 25 -3 91 1 91 4 120 13 112 7 -6 14 -5 18 2 3 5
1 10 -4 10 -6 0 -11 7 -11 15 0 8 -4 15 -9 15 -5 0 -15 17 -21 38 -6 20 -15
46 -20 57 -5 11 -11 31 -13 45 -2 14 -10 39 -19 55 -9 17 -28 80 -42 140 -15
61 -29 121 -33 135 -4 14 -7 32 -9 40 -1 8 -6 32 -12 53 -6 21 -7 37 -1 37 5
0 9 5 9 11 0 5 -4 7 -10 4 -5 -3 -10 1 -10 9 0 9 5 16 11 16 8 0 9 4 0 13 -6
8 -8 17 -4 21 4 4 -1 4 -12 0 -11 -4 -17 -4 -13 1 4 4 2 15 -5 23 -10 13 -9
14 1 8 9 -6 12 -1 8 16 -4 22 -2 23 64 23 38 0 72 -3 76 -8 4 -4 16 0 26 10
17 15 18 15 18 0 0 -10 4 -17 10 -17 5 0 7 -7 4 -15 -4 -8 -1 -15 5 -15 6 0
11 -5 11 -11 0 -5 -5 -7 -12 -3 -6 4 -8 3 -5 -3 4 -6 9 -43 12 -84 3 -41 9
-100 15 -132 5 -32 6 -65 3 -74 -4 -9 -2 -14 3 -11 8 5 11 -38 4 -59 -1 -5 -2
-11 -1 -15 0 -5 -4 -8 -10 -8 -5 0 -7 -5 -3 -12 4 -7 3 -8 -5 -4 -7 5 -9 16
-5 28 4 13 2 18 -4 14 -6 -4 -13 20 -17 62 -3 37 -9 90 -11 117 -3 28 -5 63
-5 78 0 18 -4 25 -11 21 -7 -5 -9 -2 -5 9 3 9 0 33 -8 54 -11 32 -14 34 -14
13 -2 -51 63 -419 72 -413 6 3 7 1 3 -6 -11 -17 3 -109 17 -114 9 -3 12 15 12
62 0 46 6 75 17 93 15 23 15 38 -4 234 -19 196 -22 210 -45 232 -26 24 -27 24
-118 11z m2060 -379 c3 -5 1 -10 -4 -10 -6 0 -11 5 -11 10 0 6 2 10 4 10 3 0
8 -4 11 -10z m-7 -56 c-3 -19 -28 -32 -28 -14 0 6 5 8 11 4 9 -5 10 1 5 22 -6
22 -5 26 4 18 7 -7 10 -20 8 -30z m-376 -18 c18 -8 69 -28 113 -44 84 -32 94
-44 81 -98 -5 -19 -13 -24 -36 -24 -26 0 -30 4 -30 29 0 37 -47 74 -62 47 -8
-13 -19 -8 -73 36 -36 28 -65 55 -65 60 0 12 36 10 72 -6z m-254 -12 c6 -11
11 -13 16 -5 10 16 36 14 36 -3 0 -9 7 -12 20 -9 45 12 68 -5 105 -79 57 -113
118 -348 90 -347 -5 1 -18 15 -27 32 -17 33 -135 297 -158 354 -11 28 -15 31
-32 22 -11 -6 -18 -7 -15 -2 3 5 2 15 -4 23 -7 12 -9 12 -9 -3 0 -16 26 -65
41 -77 3 -3 12 -33 19 -67 8 -34 17 -60 20 -58 7 4 30 -153 30 -205 0 -29 -3
-32 -24 -28 -22 4 -25 1 -31 -33 -4 -20 -13 -45 -21 -56 -15 -17 -15 -16 -9 7
26 97 16 180 -51 413 -19 66 -32 123 -28 128 8 14 22 11 32 -7z m-40 -53 c11
-45 6 -74 -8 -51 -5 7 -6 24 -4 37 2 12 1 23 -3 23 -5 0 -8 11 -8 25 0 33 10
18 23 -34z m232 26 c5 2 7 -4 3 -13 -6 -17 -27 -14 -29 4 -1 7 -2 17 -3 23 0
5 -6 7 -13 3 -7 -5 -8 -3 -3 6 6 10 11 9 22 -6 8 -10 18 -18 23 -17z m-207
-117 c3 -13 0 -20 -9 -20 -8 0 -14 9 -14 20 0 11 4 20 9 20 5 0 11 -9 14 -20z
m473 -37 c-10 -10 -19 5 -10 18 6 11 8 11 12 0 2 -7 1 -15 -2 -18z m-338 -18
c-3 -3 -9 2 -12 12 -6 14 -5 15 5 6 7 -7 10 -15 7 -18z m-1418 -898 c6 -101
21 -232 35 -309 26 -137 69 -318 85 -353 5 -11 12 -31 16 -45 27 -99 162 -385
224 -476 37 -53 52 -124 27 -124 -8 0 -22 -2 -30 -6 -9 -3 -18 5 -26 24 -7 16
-28 44 -47 63 l-34 33 0 -62 c0 -55 6 -75 53 -170 28 -59 55 -108 60 -110 17
-8 5 -19 -22 -19 -25 0 -28 3 -19 17 8 12 7 22 -1 36 -10 17 -11 16 -5 -7 7
-34 2 -37 -76 -40 -36 -1 -71 -6 -77 -12 -9 -6 -13 -5 -13 4 0 11 -12 13 -46
10 -32 -2 -44 0 -40 8 5 7 1 9 -8 5 -13 -5 -16 1 -17 27 0 19 -2 53 -4 77 -2
24 1 40 6 36 5 -3 9 -29 9 -59 0 -55 5 -63 39 -70 15 -3 18 1 14 12 -4 10 -2
14 5 9 6 -3 14 -1 18 6 4 7 4 10 -1 6 -4 -4 -14 -3 -22 3 -10 9 -13 7 -13 -10
0 -13 -4 -19 -10 -16 -6 4 -8 16 -4 27 5 16 3 19 -7 12 -11 -6 -11 -5 0 9 12
15 12 22 -2 50 -9 17 -19 50 -23 72 -7 40 -7 40 -14 10 -3 -16 -9 134 -13 335
-7 349 -19 727 -33 1040 -3 80 -3 142 0 139 3 -3 11 -85 16 -182z m1831 -93
c-17 -426 -31 -894 -32 -1089 -1 -99 -5 -166 -9 -150 l-7 30 -7 -40 c-4 -22
-13 -53 -21 -70 -8 -16 -13 -45 -10 -62 2 -18 0 -35 -6 -38 -5 -4 -9 4 -9 16
0 17 -3 19 -13 10 -8 -6 -18 -7 -22 -3 -5 4 -5 1 -1 -6 4 -7 12 -9 18 -6 7 5
9 1 5 -9 -4 -11 -1 -15 14 -12 34 7 39 15 39 70 0 30 4 56 9 59 4 3 7 -20 5
-52 -1 -31 -3 -65 -3 -76 -1 -12 -6 -16 -17 -12 -9 4 -13 2 -8 -5 4 -8 -8 -10
-40 -8 -34 3 -46 1 -46 -10 0 -9 -4 -10 -12 -4 -7 6 -42 11 -78 12 -78 3 -83
6 -76 40 6 23 5 24 -5 7 -8 -14 -9 -24 -1 -36 9 -14 6 -17 -19 -17 -27 0 -39
11 -21 19 4 2 31 51 60 110 46 95 52 115 52 170 l0 62 -34 -33 c-19 -19 -40
-47 -47 -63 -8 -19 -17 -27 -26 -24 -8 4 -22 6 -30 6 -26 0 -10 72 28 127 62
90 196 374 223 473 4 14 11 34 16 45 17 38 58 210 84 350 20 109 46 379 46
484 0 8 2 12 6 9 3 -3 0 -127 -5 -274z m-1289 -1591 c-75 -73 -139 -133 -143
-133 -4 0 -10 7 -13 16 -4 11 30 52 114 137 74 75 120 115 120 104 0 -9 4 -17
9 -17 5 0 7 9 4 20 -3 11 0 27 8 36 11 14 14 13 25 -7 11 -21 2 -32 -124 -156z
m645 130 c-2 -13 0 -23 4 -23 5 0 9 8 9 17 0 11 47 -30 120 -104 83 -84 118
-126 114 -137 -3 -9 -9 -16 -13 -16 -4 0 -68 60 -143 133 -121 119 -134 135
-125 155 8 18 13 20 24 10 8 -6 13 -22 10 -35z m-1155 -12 c-10 -6 -8 -10 8
-14 13 -3 23 0 27 9 7 19 52 18 91 -2 37 -18 37 -18 46 -67 5 -27 4 -37 -3
-32 -7 3 -11 -2 -11 -14 0 -10 5 -21 11 -23 6 -2 8 -14 4 -31 -4 -15 -12 -24
-17 -21 -6 4 -9 1 -7 -5 7 -20 23 -18 28 4 2 11 7 22 11 25 13 9 -5 150 -20
160 -10 6 23 10 91 10 l106 0 13 -60 c12 -58 12 -62 -10 -85 -13 -14 -28 -25
-34 -25 -6 0 -22 -9 -36 -20 -20 -16 -21 -19 -5 -14 11 4 26 11 33 17 22 17
13 -5 -12 -28 -29 -27 -45 -17 -47 30 -1 20 -3 24 -6 10 -3 -11 -9 -24 -13
-29 -5 -5 -2 -15 6 -23 16 -16 19 -73 4 -73 -5 0 -10 -11 -10 -23 0 -13 -3
-27 -7 -30 -3 -4 -7 -19 -8 -34 0 -16 -4 -37 -8 -48 -10 -31 15 -53 69 -61 27
-4 55 -6 62 -5 6 0 18 1 25 0 6 0 55 -2 107 -3 52 -2 121 -6 153 -10 37 -4 57
-3 57 5 0 5 5 7 12 3 6 -4 18 2 26 12 12 16 14 16 9 2 -5 -15 -2 -16 21 -7 14
6 32 15 39 21 18 15 17 -7 -1 -24 -10 -9 -11 -21 -4 -45 12 -45 6 -135 -9
-141 -9 -2 -13 12 -13 50 0 29 -4 48 -8 42 -5 -9 -21 -9 -57 -2 -64 13 -242
22 -232 12 4 -5 49 -9 99 -11 123 -3 131 -18 10 -18 -82 0 -99 -3 -111 -18
-10 -14 -10 -22 -2 -30 16 -16 14 -27 -5 -27 -13 0 -15 8 -12 35 2 19 0 35 -4
35 -4 0 -8 -7 -8 -16 0 -8 -4 -13 -9 -10 -5 3 -7 16 -4 29 4 18 3 19 -6 7 -6
-8 -11 -24 -11 -36 0 -19 -8 -22 -77 -29 -136 -13 -127 -15 -134 30 l-6 40 -2
-50 c-1 -44 -3 -48 -15 -32 -10 13 -19 15 -36 9 -19 -7 -20 -10 -7 -21 12 -9
98 -11 369 -9 l353 3 3 158 c1 90 7 157 12 157 5 0 11 -67 12 -157 l3 -158
353 -3 c271 -2 357 0 369 9 13 11 12 14 -7 21 -17 6 -26 4 -36 -9 -12 -16 -13
-12 -14 30 0 26 -3 47 -7 47 -5 0 -8 -17 -8 -37 0 -43 9 -41 -127 -28 -70 7
-78 10 -78 29 0 12 -5 28 -11 36 -9 12 -10 11 -6 -7 3 -13 1 -26 -4 -29 -5 -3
-9 2 -9 10 0 9 -4 16 -8 16 -5 0 -7 -13 -4 -29 2 -16 -1 -32 -8 -36 -17 -11
-25 2 -11 19 10 12 10 19 -1 33 -11 15 -28 18 -110 18 -121 0 -113 15 10 18
50 2 95 6 99 11 4 4 -41 6 -100 5 -59 -1 -107 -6 -107 -10 0 -12 -75 -17 -82
-5 -4 6 -8 -13 -8 -42 0 -38 -4 -52 -12 -50 -16 6 -23 110 -10 147 7 19 6 30
-4 39 -18 17 -19 39 -1 24 7 -6 25 -15 39 -21 23 -9 26 -8 21 7 -5 16 -5 16 8
0 16 -19 76 -38 65 -20 -4 7 3 8 23 2 16 -4 32 -6 35 -3 3 3 54 7 113 9 59 2
114 3 121 4 6 0 18 -1 25 -1 6 -1 34 1 61 5 54 8 79 30 69 61 -4 11 -8 32 -8
48 -1 15 -5 30 -8 34 -4 3 -7 17 -7 30 0 12 -4 23 -10 23 -5 0 -10 12 -9 28 0
24 1 25 10 7 7 -15 8 -12 3 13 -4 21 -2 32 6 32 9 0 9 4 2 13 -5 6 -12 21 -15
32 -3 11 -5 6 -4 -13 2 -44 -18 -55 -49 -27 -25 23 -34 45 -11 28 6 -6 21 -13
32 -17 16 -5 15 -2 -5 14 -14 11 -30 20 -36 20 -6 0 -21 11 -34 25 -22 23 -22
27 -10 85 l13 60 106 0 c68 0 101 -4 91 -10 -15 -10 -33 -151 -20 -160 4 -3
10 -14 13 -25 3 -11 3 0 0 24 -4 30 -2 41 6 37 7 -5 11 1 11 14 0 12 -4 18
-11 15 -10 -7 -3 58 8 78 15 26 118 44 127 21 3 -7 14 -10 26 -7 16 4 18 8 8
14 -9 6 -9 9 -1 9 7 0 17 -9 23 -20 6 -12 16 -17 22 -14 19 12 88 22 82 12 -3
-5 13 -6 37 -2 32 5 40 4 34 -5 -6 -10 -3 -11 11 -3 11 5 35 9 54 8 29 -1 35
-5 34 -24 -1 -12 3 -19 7 -16 5 3 7 10 4 15 -4 5 -2 9 3 9 15 0 20 -22 28
-105 5 -61 4 -75 -7 -75 -10 0 -10 -3 -3 -8 18 -11 23 -82 6 -82 -11 0 -12 -3
-3 -14 14 -17 14 -29 8 -287 -3 -126 -9 -214 -16 -227 -25 -46 -59 -53 -247
-51 l-174 2 0 69 c0 39 -4 68 -10 68 -6 0 -11 -33 -11 -77 -1 -61 -3 -71 -10
-48 -4 17 -6 -87 -4 -241 l5 -271 -25 5 c-18 3 -25 11 -25 28 0 30 8 31 21 2
9 -22 9 -22 3 2 -5 24 -11 56 -13 73 -2 22 -18 -6 -19 -34 0 -17 -3 -33 -5
-36 -5 -5 -70 -5 -384 1 -179 2 -225 1 -234 -10 -15 -18 -123 -19 -137 -1 -15
18 -403 24 -447 7 -19 -8 -56 -9 -102 -5 -62 6 -73 10 -73 25 0 10 -4 21 -9
24 -10 7 -37 -52 -27 -61 3 -3 6 1 6 10 0 9 5 19 10 22 6 3 10 -5 10 -18 0
-18 -6 -26 -24 -29 l-25 -5 4 271 c2 153 0 258 -4 241 -7 -23 -9 -12 -10 48 0
42 -5 77 -10 77 -14 0 -21 -42 -16 -92 l4 -45 -174 -1 c-177 -1 -244 10 -246
41 0 6 -3 23 -5 37 -5 24 -17 372 -15 439 0 18 6 40 12 47 9 11 8 14 -3 14
-17 0 -12 71 6 82 7 5 7 8 -3 8 -11 0 -12 14 -7 75 8 83 13 105 28 105 5 0 7
-4 3 -9 -3 -5 -1 -12 4 -15 4 -3 8 4 7 16 -1 19 5 23 34 24 19 1 43 -3 54 -8
11 -6 16 -6 12 0 -7 12 123 13 146 1 13 -7 20 -4 28 11 6 11 16 20 23 20 8 0
8 -3 -1 -9z m645 -86 c-1 -1 -15 -9 -32 -19 l-30 -17 23 20 c12 10 22 25 22
33 0 10 2 10 10 -2 5 -8 8 -15 7 -15z m507 -17 c20 -18 20 -18 -10 -1 -21 11
-30 22 -26 32 5 13 6 13 10 1 3 -8 15 -22 26 -32z m-784 -68 c0 -5 -5 -10 -11
-10 -5 0 -7 5 -4 10 3 6 8 10 11 10 2 0 4 -4 4 -10z m1035 0 c3 -5 1 -10 -4
-10 -6 0 -11 5 -11 10 0 6 2 10 4 10 3 0 8 -4 11 -10z m-1025 -129 c0 -5 -7
-11 -15 -15 -15 -5 -20 5 -8 17 9 10 23 9 23 -2z m1028 -9 c2 -7 -2 -10 -12
-6 -9 3 -16 11 -16 16 0 13 23 5 28 -10z m-239 -138 c2 -2 -17 -4 -43 -4 -27
0 -45 4 -41 9 5 9 73 4 84 -5z m-602 0 c-3 -3 -12 -4 -19 -1 -8 3 -5 6 6 6 11
1 17 -2 13 -5z m650 0 c-3 -3 -12 -4 -19 -1 -8 3 -5 6 6 6 11 1 17 -2 13 -5z
m-375 -193 c-6 -59 -22 -51 -22 10 0 41 3 49 13 41 8 -7 11 -26 9 -51z m98 9
c0 -60 -16 -67 -22 -10 -3 34 5 60 19 60 2 0 3 -22 3 -50z m-190 -14 c0 -8 3
-23 6 -33 5 -14 4 -15 -4 -4 -8 11 -37 14 -136 12 -122 -2 -126 -2 -126 18 0
20 5 21 130 21 106 0 130 -3 130 -14z m520 -7 c0 -20 -4 -20 -126 -18 -99 2
-128 -1 -136 -12 -8 -11 -9 -10 -4 4 3 10 6 25 6 33 0 11 24 14 130 14 125 0
130 -1 130 -21z m-820 -19 c0 -5 -5 -10 -11 -10 -5 0 -7 5 -4 10 3 6 8 10 11
10 2 0 4 -4 4 -10z m875 0 c3 -5 1 -10 -4 -10 -6 0 -11 5 -11 10 0 6 2 10 4
10 3 0 8 -4 11 -10z m-1098 -722 c-10 -5 -22 -6 -27 -3 -6 3 -10 3 -10 -2 0
-4 -11 -13 -24 -19 -22 -10 -24 -10 -13 7 6 10 15 15 19 13 4 -3 8 0 8 5 0 6
7 11 16 11 8 0 12 5 8 11 -4 7 2 7 16 -1 21 -11 21 -13 7 -22z m1328 22 c-3
-5 1 -10 9 -10 9 0 16 -5 16 -11 0 -5 5 -7 10 -4 6 3 10 0 10 -7 0 -9 3 -9 10
2 7 12 9 11 8 -6 -2 -17 -5 -19 -25 -10 -13 6 -23 15 -23 19 0 5 -4 5 -10 2
-5 -3 -10 -2 -10 4 0 6 -8 8 -17 5 -15 -5 -15 -3 1 10 23 18 30 20 21 6z"/>
<path d="M3379 5755 c-4 -3 5 -41 19 -83 14 -42 35 -121 48 -176 13 -54 25
-101 28 -104 11 -10 6 82 -8 176 -8 52 -17 97 -21 100 -4 4 -5 -2 -4 -13 2
-11 -1 -21 -6 -22 -6 -1 -9 10 -8 25 2 21 0 24 -8 12 -8 -11 -9 -8 -5 15 5 24
4 27 -5 15 -9 -12 -10 -11 -6 8 3 12 1 20 -3 17 -5 -3 -10 4 -12 16 -2 11 -6
18 -9 14z"/>
<path d="M2168 3923 c7 -3 16 -2 19 1 4 3 -2 6 -13 5 -11 0 -14 -3 -6 -6z"/>
<path d="M2245 3810 c-3 -5 -1 -10 4 -10 6 0 11 5 11 10 0 6 -2 10 -4 10 -3 0
-8 -4 -11 -10z"/>
<path d="M2220 3780 c-9 -6 -10 -10 -3 -10 6 0 15 5 18 10 8 12 4 12 -15 0z"/>
<path d="M2178 3773 c7 -3 16 -2 19 1 4 3 -2 6 -13 5 -11 0 -14 -3 -6 -6z"/>
<path d="M2203 3733 c9 -2 23 -2 30 0 6 3 -1 5 -18 5 -16 0 -22 -2 -12 -5z"/>
<path d="M2258 3733 c7 -3 16 -2 19 1 4 3 -2 6 -13 5 -11 0 -14 -3 -6 -6z"/>
<path d="M2205 3670 c-3 -5 -1 -10 4 -10 6 0 11 5 11 10 0 6 -2 10 -4 10 -3 0
-8 -4 -11 -10z"/>
<path d="M2237 3663 c-4 -3 -7 -11 -7 -17 0 -7 3 -7 8 1 4 6 25 13 47 16 l40
4 -41 1 c-22 1 -44 -1 -47 -5z"/>
<path d="M2183 3623 c9 -2 23 -2 30 0 6 3 -1 5 -18 5 -16 0 -22 -2 -12 -5z"/>
<path d="M2121 3471 c2 -45 7 -81 12 -81 6 0 7 25 3 61 -5 42 -4 59 3 54 6 -3
11 -16 12 -28 0 -12 3 -16 6 -9 4 10 8 9 19 -5 17 -22 18 -41 2 -25 -16 16
-33 15 -19 -1 8 -10 7 -17 -2 -27 -6 -7 1 -4 18 6 26 17 28 17 23 2 -5 -12 -3
-15 7 -11 12 4 12 9 3 26 -6 12 -14 24 -17 27 -3 3 -16 19 -28 36 l-22 32 24
0 c14 0 22 -5 19 -10 -4 -6 4 -23 16 -40 12 -17 23 -42 24 -56 1 -30 46 -81
75 -85 23 -4 41 -17 22 -17 -7 0 -9 -5 -6 -10 4 -6 11 -8 16 -5 5 3 6 -2 2
-11 -4 -12 -3 -15 5 -10 7 4 12 1 12 -7 0 -11 -14 -13 -60 -11 -33 2 -68 8
-79 14 -12 6 -22 6 -26 1 -3 -6 11 -15 32 -20 43 -12 166 -15 161 -3 -1 4 -20
40 -42 80 -34 64 -42 72 -68 72 l-29 0 2 61 c3 70 -1 75 -72 78 l-50 2 2 -80z
m100 45 c13 8 11 -10 -3 -25 -10 -11 -10 -13 0 -7 6 4 12 2 12 -3 0 -18 -19
-12 -30 9 -6 11 -8 26 -4 32 6 9 9 9 12 0 2 -7 8 -10 13 -6z m69 -152 c0 -8
-4 -14 -10 -14 -5 0 -10 2 -10 4 0 2 -3 12 -6 20 -5 12 -2 15 10 10 9 -3 16
-12 16 -20z"/>
<path d="M2280 3480 c0 -5 5 -10 11 -10 5 0 7 5 4 10 -3 6 -8 10 -11 10 -2 0
-4 -4 -4 -10z"/>
<path d="M2306 3459 c-8 -42 0 -50 9 -9 4 17 5 34 2 36 -2 3 -7 -10 -11 -27z"/>
<path d="M2170 3390 c0 -5 5 -10 11 -10 5 0 7 5 4 10 -3 6 -8 10 -11 10 -2 0
-4 -4 -4 -10z"/>
<path d="M2146 3368 c7 -22 35 -50 43 -43 2 2 -4 11 -13 20 -9 9 -16 23 -16
31 0 8 -5 14 -11 14 -6 0 -8 -9 -3 -22z"/>
<path d="M2203 3353 c9 -9 20 -13 24 -9 4 4 1 11 -7 16 -25 16 -35 11 -17 -7z"/>
<path d="M2248 3313 c12 -2 30 -2 40 0 9 3 -1 5 -23 4 -22 0 -30 -2 -17 -4z"/>
<path d="M2176 3232 c-2 -4 6 -8 19 -8 13 0 21 4 19 8 -3 4 -11 8 -19 8 -8 0
-16 -4 -19 -8z"/>
<path d="M2340 3210 c0 -24 4 -30 22 -30 20 0 20 1 4 19 -10 11 -15 25 -11 30
3 6 1 11 -4 11 -6 0 -11 -13 -11 -30z"/>
<path d="M2370 3220 c0 -19 3 -21 12 -12 9 9 9 15 0 24 -9 9 -12 7 -12 -12z"/>
<path d="M2243 3186 c0 -14 3 -26 8 -26 11 0 11 21 0 39 -6 9 -8 5 -8 -13z"/>
<path d="M2295 3200 c-3 -6 -1 -10 6 -10 6 0 9 -8 6 -20 -6 -25 -1 -26 12 -2
10 19 -13 50 -24 32z"/>
<path d="M2275 3170 c3 -5 8 -10 11 -10 2 0 4 5 4 10 0 6 -5 10 -11 10 -5 0
-7 -4 -4 -10z"/>
<path d="M3810 3926 c0 -2 9 -6 20 -9 11 -3 18 -1 14 4 -5 9 -34 13 -34 5z"/>
<path d="M3788 3813 c7 -3 16 -2 19 1 4 3 -2 6 -13 5 -11 0 -14 -3 -6 -6z"/>
<path d="M3767 3779 c7 -7 15 -10 18 -7 3 3 -2 9 -12 12 -14 6 -15 5 -6 -5z"/>
<path d="M3808 3773 c7 -3 16 -2 19 1 4 3 -2 6 -13 5 -11 0 -14 -3 -6 -6z"/>
<path d="M3778 3733 c6 -2 18 -2 25 0 6 3 1 5 -13 5 -14 0 -19 -2 -12 -5z"/>
<path d="M3780 3670 c0 -5 5 -10 11 -10 5 0 7 5 4 10 -3 6 -8 10 -11 10 -2 0
-4 -4 -4 -10z"/>
<path d="M3830 3670 c0 -5 5 -10 11 -10 5 0 7 5 4 10 -3 6 -8 10 -11 10 -2 0
-4 -4 -4 -10z"/>
<path d="M3715 3663 c22 -3 44 -10 48 -16 6 -8 7 -7 4 3 -2 10 -18 15 -48 16
-44 1 -44 1 -4 -3z"/>
<path d="M3793 3623 c9 -2 23 -2 30 0 6 3 -1 5 -18 5 -16 0 -22 -2 -12 -5z"/>
<path d="M3772 3542 c-8 -2 -12 -25 -12 -68 0 -64 0 -64 -29 -64 -25 0 -33 -8
-67 -72 -22 -40 -40 -76 -42 -80 -5 -12 118 -9 161 3 21 5 35 14 32 20 -4 5
-18 3 -34 -5 -15 -8 -36 -13 -47 -11 -10 2 -27 4 -36 4 -10 1 -22 11 -29 22
-7 13 -7 19 -1 15 6 -3 13 -2 17 4 3 5 1 10 -6 10 -19 0 -1 13 22 17 29 4 74
55 75 85 1 14 12 39 24 56 12 17 20 34 16 40 -3 5 5 10 19 10 l24 0 -22 -32
c-12 -17 -25 -33 -28 -36 -3 -3 -11 -15 -17 -27 -9 -17 -9 -22 3 -26 10 -4 12
-1 7 11 -5 15 -3 15 23 -2 19 -13 26 -14 18 -5 -10 12 -10 18 -1 27 7 7 8 12
2 12 -5 0 -15 -5 -22 -12 -16 -16 -15 3 2 25 11 14 15 15 19 5 3 -7 6 -3 6 9
1 12 6 25 12 28 7 5 8 -12 3 -54 -4 -36 -3 -61 3 -61 5 0 10 36 12 81 l2 80
-48 -2 c-26 -1 -54 -4 -61 -7z m29 -51 c-12 -22 -31 -28 -31 -10 0 5 6 7 13 3
10 -6 10 -4 0 7 -15 16 -17 33 -3 24 6 -3 10 -1 10 6 0 10 3 10 11 2 8 -8 8
-17 0 -32z m-68 -121 c-3 -11 -9 -20 -14 -20 -14 0 -11 28 4 33 6 3 13 6 14 6
0 1 -1 -8 -4 -19z m-63 -95 c10 -12 10 -15 -4 -15 -9 0 -16 7 -16 15 0 8 2 15
4 15 2 0 9 -7 16 -15z"/>
<path d="M3682 3475 c0 -11 3 -29 8 -40 11 -25 11 1 0 35 -6 20 -8 21 -8 5z"/>
<path d="M3815 3390 c-3 -5 -1 -10 4 -10 6 0 11 5 11 10 0 6 -2 10 -4 10 -3 0
-8 -4 -11 -10z"/>
<path d="M3840 3376 c0 -8 -7 -22 -16 -31 -20 -20 -15 -28 7 -12 20 15 35 57
20 57 -6 0 -11 -6 -11 -14z"/>
<path d="M3781 3361 c-8 -5 -9 -11 -3 -15 5 -3 15 1 22 9 14 16 3 20 -19 6z"/>
<path d="M3718 3313 c12 -2 30 -2 40 0 9 3 -1 5 -23 4 -22 0 -30 -2 -17 -4z"/>
<path d="M3614 3229 c-3 -6 -1 -16 5 -22 8 -8 11 -5 11 11 0 24 -5 28 -16 11z"/>
<path d="M3645 3229 c4 -5 -1 -19 -11 -30 -16 -18 -16 -19 4 -19 18 0 22 6 22
30 0 17 -5 30 -11 30 -5 0 -7 -5 -4 -11z"/>
<path d="M3786 3232 c-2 -4 6 -8 19 -8 13 0 21 4 19 8 -3 4 -11 8 -19 8 -8 0
-16 -4 -19 -8z"/>
<path d="M3683 3195 c-9 -10 -9 -17 2 -31 13 -18 14 -18 8 4 -3 12 -1 22 5 22
6 0 12 -8 14 -17 2 -12 6 -14 10 -7 4 6 0 18 -10 27 -14 12 -19 13 -29 2z"/>
<path d="M3746 3193 c-4 -9 -3 -20 2 -25 6 -6 10 1 10 16 0 30 -3 32 -12 9z"/>
<path d="M2333 3085 c3 -16 9 -54 12 -82 4 -29 11 -53 16 -53 12 0 12 3 -5 84
-14 66 -34 112 -23 51z"/>
<path d="M3656 3089 c-3 -13 -10 -48 -17 -77 -10 -46 -8 -74 5 -61 6 6 26 153
21 157 -2 3 -6 -6 -9 -19z"/>
<path d="M2123 3085 c0 -8 4 -12 9 -9 5 3 6 10 3 15 -9 13 -12 11 -12 -6z"/>
<path d="M3736 3088 c3 -5 10 -6 15 -3 13 9 11 12 -6 12 -8 0 -12 -4 -9 -9z"/>
<path d="M3865 3091 c-3 -5 -2 -12 3 -15 5 -3 9 1 9 9 0 17 -3 19 -12 6z"/>
<path d="M2320 2920 c0 -11 4 -20 10 -20 5 0 14 9 20 20 9 17 8 20 -10 20 -13
0 -20 -7 -20 -20z"/>
<path d="M3650 2920 c6 -11 15 -20 20 -20 6 0 10 9 10 20 0 13 -7 20 -20 20
-18 0 -19 -3 -10 -20z"/>
<path d="M3740 2931 c0 -6 4 -13 10 -16 6 -3 7 1 4 9 -7 18 -14 21 -14 7z"/>
<path d="M3653 2848 c1 -27 4 -48 9 -48 4 0 8 -5 8 -11 0 -5 -4 -8 -9 -4 -5 3
-12 1 -15 -4 -8 -13 22 -7 36 7 9 9 9 12 -1 12 -8 0 -11 6 -7 16 3 8 2 12 -3
9 -6 -3 -12 12 -14 32 -4 32 -4 30 -4 -9z"/>
<path d="M2342 2850 c0 -19 2 -27 5 -17 2 9 2 25 0 35 -3 9 -5 1 -5 -18z"/>
<path d="M2371 2854 c0 -11 3 -14 6 -6 3 7 2 16 -1 19 -3 4 -6 -2 -5 -13z"/>
<path d="M1822 2814 c-1 -13 0 -24 2 -24 7 0 14 40 7 44 -4 3 -8 -6 -9 -20z"/>
<path d="M4167 2833 c-3 -5 -1 -17 4 -28 6 -17 7 -16 6 8 -1 28 -3 32 -10 20z"/>
<path d="M2336 2782 c-3 -5 1 -9 9 -9 8 0 12 4 9 9 -3 4 -7 8 -9 8 -2 0 -6 -4
-9 -8z"/>
<path d="M4185 2770 c-3 -5 -1 -10 4 -10 6 0 11 5 11 10 0 6 -2 10 -4 10 -3 0
-8 -4 -11 -10z"/>
<path d="M2299 2768 c-7 -26 -8 -81 -1 -73 14 15 23 75 12 75 -6 0 -10 -1 -11
-2z"/>
<path d="M3683 2756 c4 -10 7 -29 7 -42 0 -15 4 -23 10 -19 15 9 7 68 -10 73
-9 3 -11 -1 -7 -12z"/>
<path d="M2332 2735 c0 -11 -2 -28 -7 -38 -11 -26 -2 -29 11 -3 6 13 7 31 2
42 -7 18 -8 18 -6 -1z"/>
<path d="M3658 2732 c-3 -11 1 -30 8 -43 10 -18 13 -20 14 -7 0 9 -4 19 -9 22
-5 3 -7 15 -4 26 3 11 3 20 0 20 -2 0 -7 -8 -9 -18z"/>
<path d="M4077 2713 c-4 -3 -7 -11 -7 -17 0 -6 5 -5 12 2 6 6 9 14 7 17 -3 3
-9 2 -12 -2z"/>
<path d="M1805 2650 c-3 -5 -1 -10 4 -10 6 0 11 5 11 10 0 6 -2 10 -4 10 -3 0
-8 -4 -11 -10z"/>
<path d="M2300 2650 c0 -5 5 -10 10 -10 6 0 10 5 10 10 0 6 -4 10 -10 10 -5 0
-10 -4 -10 -10z"/>
<path d="M3680 2650 c0 -5 5 -10 10 -10 6 0 10 5 10 10 0 6 -4 10 -10 10 -5 0
-10 -4 -10 -10z"/>
<path d="M4180 2644 c0 -8 5 -12 10 -9 6 4 8 11 5 16 -9 14 -15 11 -15 -7z"/>
<path d="M1960 2640 c0 -5 5 -10 10 -10 6 0 10 5 10 10 0 6 -4 10 -10 10 -5 0
-10 -4 -10 -10z"/>
<path d="M4020 2640 c0 -5 5 -10 10 -10 6 0 10 5 10 10 0 6 -4 10 -10 10 -5 0
-10 -4 -10 -10z"/>
<path d="M2312 2586 c7 -8 15 -12 17 -11 5 6 -10 25 -20 25 -5 0 -4 -6 3 -14z"/>
<path d="M3675 2589 c-11 -16 -1 -19 13 -3 7 8 8 14 3 14 -5 0 -13 -5 -16 -11z"/>
<path d="M2902 2570 c0 -14 2 -19 5 -12 2 6 2 18 0 25 -3 6 -5 1 -5 -13z"/>
<path d="M3092 2570 c0 -14 2 -19 5 -12 2 6 2 18 0 25 -3 6 -5 1 -5 -13z"/>
<path d="M2306 2552 c6 -4 14 -14 17 -22 4 -10 6 -8 6 8 1 15 -5 22 -16 22
-11 0 -14 -3 -7 -8z"/>
<path d="M3671 2538 c0 -16 2 -18 6 -8 3 8 11 18 17 22 7 5 4 8 -6 8 -12 0
-18 -7 -17 -22z"/>
<path d="M2498 2528 c9 -9 15 -9 24 0 9 9 7 12 -12 12 -19 0 -21 -3 -12 -12z"/>
<path d="M3478 2528 c9 -9 15 -9 24 0 9 9 7 12 -12 12 -19 0 -21 -3 -12 -12z"/>
<path d="M2515 2480 c-3 -5 -1 -10 4 -10 6 0 11 5 11 10 0 6 -2 10 -4 10 -3 0
-8 -4 -11 -10z"/>
<path d="M3470 2478 c0 -4 9 -8 20 -8 11 0 20 4 20 8 0 4 -9 8 -20 8 -11 0
-20 -4 -20 -8z"/>
<path d="M2410 2476 c0 -2 7 -9 15 -16 9 -7 15 -8 15 -2 0 5 -7 12 -15 16 -8
3 -15 4 -15 2z"/>
<path d="M3570 2470 c-8 -5 -12 -12 -9 -15 4 -3 12 1 19 10 14 17 11 19 -10 5z"/>
<path d="M2368 2463 c6 -2 18 -2 25 0 6 3 1 5 -13 5 -14 0 -19 -2 -12 -5z"/>
<path d="M3608 2463 c6 -2 18 -2 25 0 6 3 1 5 -13 5 -14 0 -19 -2 -12 -5z"/>
<path d="M2220 2411 c0 -13 3 -21 7 -18 10 10 38 -35 35 -58 -1 -17 0 -16 8 3
6 15 6 27 0 35 -6 7 -19 23 -30 37 l-19 25 -1 -24z"/>
<path d="M3749 2398 c-7 -13 -16 -26 -21 -29 -5 -3 -4 -16 1 -30 l10 -24 1 25
c1 28 23 63 33 53 4 -3 7 -1 7 5 0 22 -19 22 -31 0z"/>
<path d="M2990 2403 c0 -5 -129 -8 -288 -8 -158 0 -320 -1 -361 -3 -66 -3 -71
-5 -50 -16 13 -7 29 -10 34 -6 6 4 102 8 215 8 113 0 257 1 320 2 l115 3 5
-109 c4 -88 8 -109 20 -109 12 0 16 21 20 108 l5 108 250 -2 c138 -1 281 -2
319 -1 43 2 74 -2 84 -10 13 -10 14 -10 8 0 -5 8 1 13 21 14 86 5 -152 13
-404 13 -161 0 -293 3 -293 8 0 4 -4 7 -10 7 -5 0 -10 -3 -10 -7z m20 -28 c0
-8 -4 -15 -10 -15 -5 0 -10 7 -10 15 0 8 5 15 10 15 6 0 10 -7 10 -15z m-1
-100 c1 -44 -3 -75 -9 -75 -6 0 -10 32 -10 75 0 41 4 75 9 75 5 0 9 -34 10
-75z"/>
<path d="M2290 2150 c-13 -8 -12 -10 3 -10 9 0 17 5 17 10 0 12 -1 12 -20 0z"/>
<path d="M3690 2150 c0 -6 7 -10 15 -10 8 0 15 2 15 4 0 2 -7 6 -15 10 -8 3
-15 1 -15 -4z"/>
<path d="M2678 2143 c7 -3 16 -2 19 1 4 3 -2 6 -13 5 -11 0 -14 -3 -6 -6z"/>
<path d="M3708 2113 c7 -3 16 -2 19 1 4 3 -2 6 -13 5 -11 0 -14 -3 -6 -6z"/>
<path d="M2403 1963 c9 -2 23 -2 30 0 6 3 -1 5 -18 5 -16 0 -22 -2 -12 -5z"/>
<path d="M3573 1963 c9 -2 25 -2 35 0 9 3 1 5 -18 5 -19 0 -27 -2 -17 -5z"/>
<path d="M2395 1937 c78 -10 1132 -10 1210 0 33 5 -239 8 -605 8 -366 0 -638
-3 -605 -8z"/>
<path d="M2290 1925 c-10 -12 -10 -15 4 -15 9 0 16 7 16 15 0 8 -2 15 -4 15
-2 0 -9 -7 -16 -15z"/>
<path d="M3690 1925 c0 -8 7 -15 16 -15 14 0 14 3 4 15 -7 8 -14 15 -16 15 -2
0 -4 -7 -4 -15z"/>
<path d="M3658 1923 c7 -3 16 -2 19 1 4 3 -2 6 -13 5 -11 0 -14 -3 -6 -6z"/>
<path d="M3855 6231 c-3 -5 -2 -12 3 -15 5 -3 9 1 9 9 0 17 -3 19 -12 6z"/>
<path d="M1996 6189 c4 -7 -5 -9 -29 -6 -27 3 -38 0 -43 -12 -10 -21 -12 -71
-3 -71 4 0 10 -17 14 -37 5 -32 19 -83 51 -185 3 -10 1 -18 -5 -18 -6 0 -10 3
-10 8 3 18 -2 32 -12 32 -6 0 -7 -5 -2 -12 4 -7 9 -24 10 -38 7 -54 36 -180
41 -175 10 10 9 44 -1 38 -5 -3 -7 3 -5 13 1 9 7 18 12 18 13 1 27 -54 20 -79
-4 -17 -3 -17 6 -5 9 12 10 10 8 -10 -2 -14 -7 -28 -13 -32 -6 -5 -3 -8 6 -8
9 0 19 -7 23 -15 7 -20 36 -19 36 1 0 13 -3 14 -14 5 -12 -10 -16 -4 -21 36
-4 26 -19 89 -35 138 -25 80 -100 354 -104 380 0 5 17 12 38 15 22 3 41 11 44
18 2 6 -1 12 -8 12 -6 0 -8 -5 -4 -11z m-2 -365 c-5 -17 -3 -25 3 -21 6 4 11
-4 11 -18 0 -14 -4 -27 -8 -30 -9 -6 -23 73 -15 86 11 17 15 9 9 -17z"/>
<path d="M2906 6187 c3 -10 9 -15 12 -12 3 3 0 11 -7 18 -10 9 -11 8 -5 -6z"/>
<path d="M3085 6189 c-4 -6 -5 -12 -2 -15 2 -3 7 2 10 11 7 17 1 20 -8 4z"/>
<path d="M3941 6174 c0 -11 3 -14 6 -6 3 7 2 16 -1 19 -3 4 -6 -2 -5 -13z"/>
<path d="M2919 6132 c-3 -20 -2 -29 4 -23 5 5 7 19 5 32 -3 20 -5 19 -9 -9z"/>
<path d="M3070 6131 c0 -11 4 -22 9 -25 4 -3 6 6 3 19 -5 30 -12 33 -12 6z"/>
<path d="M2910 6000 c0 -5 5 -10 10 -10 6 0 10 5 10 10 0 6 -4 10 -10 10 -5 0
-10 -4 -10 -10z"/>
<path d="M3075 6000 c3 -5 8 -10 11 -10 2 0 4 5 4 10 0 6 -5 10 -11 10 -5 0
-7 -4 -4 -10z"/>
<path d="M2915 5965 c-48 -11 -95 -31 -95 -40 0 -2 8 -2 18 1 15 5 15 4 -1 -6
-26 -16 -47 -71 -47 -119 l0 -39 64 59 c66 62 121 131 115 147 -2 5 -26 4 -54
-3z m12 -35 c-14 -16 -27 -35 -29 -42 -3 -7 -20 -14 -39 -15 -19 -1 -36 -2
-38 -2 -3 -1 2 -7 10 -13 8 -7 12 -12 10 -11 -2 2 -10 -2 -18 -8 -10 -9 -13
-7 -13 9 0 21 23 46 33 35 7 -6 10 30 5 43 -5 11 44 25 65 18 13 -4 17 -2 13
5 -4 6 0 11 9 11 14 0 12 -6 -8 -30z"/>
<path d="M3030 5965 c0 -19 68 -102 129 -157 l51 -47 0 38 c0 47 -19 103 -32
95 -6 -4 -6 -10 1 -17 6 -6 11 -20 11 -30 0 -15 -3 -17 -13 -8 -8 6 -16 10
-18 8 -2 -1 2 4 10 11 15 12 10 15 -24 13 -25 -1 -36 6 -58 41 -10 17 -13 29
-7 33 12 8 70 -4 69 -13 -1 -4 -1 -18 0 -31 1 -20 3 -22 17 -10 14 12 14 14
-3 27 -16 13 -16 14 0 9 9 -4 17 -4 17 -2 0 9 -47 29 -97 41 -44 10 -53 10
-53 -1z m47 -11 c-3 -3 -12 -4 -19 -1 -8 3 -5 6 6 6 11 1 17 -2 13 -5z"/>
<path d="M2769 5939 c-19 -19 -21 -30 -17 -100 2 -43 8 -83 14 -89 8 -8 10 9
8 63 -3 56 0 78 12 93 15 18 15 18 10 0 -6 -16 -4 -17 9 -6 12 10 13 15 4 20
-6 4 -9 12 -5 18 13 21 -14 22 -35 1z"/>
<path d="M3199 5953 c-1 -4 -1 -12 0 -17 1 -5 -3 -12 -9 -16 -7 -5 -6 -11 5
-20 13 -11 15 -10 9 6 -5 18 -5 18 10 0 12 -15 15 -37 12 -93 -2 -52 0 -71 7
-64 13 13 22 130 13 165 -6 24 -45 56 -47 39z"/>
<path d="M2076 5875 c8 -37 14 -45 14 -19 0 10 -5 26 -10 34 -8 11 -9 7 -4
-15z"/>
<path d="M3910 5868 c0 -36 4 -35 14 5 4 16 2 27 -4 27 -5 0 -10 -14 -10 -32z"/>
<path d="M2713 5845 l4 -26 -168 2 c-139 0 -169 3 -169 15 0 8 -4 14 -10 14
-5 0 -10 -9 -10 -20 0 -22 -43 -45 -66 -36 -8 3 -16 1 -20 -5 -3 -6 -12 -8
-18 -6 -7 3 -18 -4 -24 -14 -10 -16 -16 -17 -32 -9 -15 8 -18 7 -14 -3 3 -8
-9 -20 -31 -30 -19 -9 -35 -24 -35 -32 0 -9 3 -14 8 -12 4 3 7 -15 8 -39 1
-57 14 -71 45 -51 13 8 34 14 46 13 12 -2 20 1 17 6 -3 5 0 15 6 23 6 8 8 20
4 26 -4 7 -3 9 4 5 6 -4 8 -21 5 -40 -6 -36 10 -76 30 -75 9 0 9 2 0 6 -9 3
-13 27 -13 69 0 41 4 63 10 59 6 -3 10 -31 10 -61 0 -30 4 -54 9 -54 5 0 7 16
4 36 -5 39 12 84 32 84 7 0 20 11 30 24 15 19 23 23 37 15 14 -8 16 -14 7 -37
-6 -15 -18 -35 -26 -44 -9 -10 -13 -18 -9 -18 3 0 -1 -17 -10 -37 -61 -143
-71 -297 -18 -276 14 5 90 152 86 166 -1 4 2 7 8 7 6 0 10 10 10 22 0 12 2 19
5 16 3 -3 2 -48 -4 -99 -9 -98 -5 -119 28 -119 11 0 21 -15 30 -45 7 -25 17
-42 22 -39 5 3 9 0 9 -5 0 -6 6 -11 14 -11 10 0 14 23 15 103 2 120 11 161 55
242 18 33 33 67 33 75 0 8 6 35 12 60 7 25 17 62 22 83 6 21 14 35 19 32 6 -4
10 9 10 29 0 20 -5 36 -11 36 -7 0 -9 -10 -6 -25z m-283 -43 c0 -5 -29 -32
-65 -60 -54 -44 -65 -49 -73 -36 -15 27 -62 -10 -62 -47 0 -25 -4 -29 -30 -29
-23 0 -31 5 -36 24 -13 54 -3 66 81 98 44 16 94 36 110 43 34 16 75 19 75 7z
m186 -138 c-67 -234 -77 -317 -51 -414 6 -23 6 -24 -9 -7 -8 11 -17 36 -21 56
-6 34 -9 37 -31 33 -21 -4 -24 -1 -24 28 0 53 23 209 30 205 4 -2 13 25 20 60
8 36 18 65 23 65 5 0 6 8 3 17 -4 10 -4 14 0 10 4 -4 13 1 20 11 16 21 18 56
3 47 -6 -4 -8 -13 -5 -21 3 -8 0 -11 -8 -8 -8 3 -12 14 -9 24 5 18 18 21 41 7
7 -5 12 -3 12 5 0 9 3 9 10 -2 8 -13 10 -12 10 5 0 13 3 16 10 9 7 -7 0 -48
-24 -130z m-150 114 c4 -7 3 -8 -4 -4 -7 4 -13 2 -13 -3 -1 -6 -2 -16 -3 -23
-2 -18 -23 -20 -30 -3 -3 9 -2 13 4 10 5 -3 14 4 20 15 12 23 16 24 26 8z m54
-75 c-40 -96 -125 -284 -153 -340 -24 -47 -38 -40 -30 16 10 74 63 240 97 308
35 70 49 83 87 83 10 0 19 5 19 12 0 6 3 9 6 5 4 -3 -8 -41 -26 -84z m155 62
c0 -14 -3 -25 -8 -25 -4 0 -5 -11 -3 -23 5 -26 -8 -55 -17 -40 -4 6 -2 27 4
49 19 72 24 81 24 39z m-25 -115 c0 -5 -5 -10 -11 -10 -5 0 -7 5 -4 10 3 6 8
10 11 10 2 0 4 -4 4 -10z m-480 -41 c0 -5 -4 -9 -10 -9 -5 0 -10 7 -10 16 0 8
5 12 10 9 6 -3 10 -10 10 -16z m477 15 c-3 -3 -12 -4 -19 -1 -8 3 -5 6 6 6 11
1 17 -2 13 -5z m-144 -29 c-3 -9 -8 -14 -10 -11 -3 3 -2 9 2 15 9 16 15 13 8
-4z"/>
<path d="M2610 5740 c0 -12 -4 -19 -9 -16 -5 4 -7 -4 -4 -16 4 -19 3 -20 -6
-8 -9 12 -10 9 -5 -15 4 -23 3 -26 -5 -15 -8 12 -10 9 -8 -12 1 -15 -2 -26 -8
-25 -5 1 -9 11 -7 22 2 19 1 19 -7 -1 -17 -39 -40 -276 -25 -262 3 3 15 50 28
104 13 55 34 134 48 177 14 42 22 80 17 83 -5 3 -9 -4 -9 -16z"/>
<path d="M2692 5654 c-7 -14 -8 -23 -2 -19 15 10 12 -4 -9 -33 -29 -42 -73
-133 -67 -140 3 -3 6 0 6 7 0 7 5 9 10 6 6 -3 10 -1 10 6 0 26 51 119 62 113
6 -4 9 -1 6 7 -3 8 -1 22 4 33 7 14 7 16 -2 11 -9 -5 -10 -1 -5 14 9 29 1 26
-13 -5z"/>
<path d="M3295 5661 c4 -14 3 -21 -2 -18 -5 3 -8 -4 -7 -16 1 -12 3 -26 3 -30
1 -5 5 -6 11 -2 13 8 63 -102 56 -122 -5 -13 -4 -14 9 -3 12 10 15 10 15 0 0
-8 3 -11 6 -8 6 7 -38 98 -67 140 -21 29 -24 43 -8 32 7 -4 7 2 -1 17 -18 34
-24 38 -15 10z"/>
<path d="M2336 5653 c-6 -14 -5 -15 5 -6 7 7 10 15 7 18 -3 3 -9 -2 -12 -12z"/>
<path d="M3650 5661 c0 -6 4 -13 10 -16 6 -3 7 1 4 9 -7 18 -14 21 -14 7z"/>
<path d="M2889 5647 c-20 -8 -50 -24 -67 -36 l-31 -22 -3 -159 c-2 -106 0
-156 7 -149 6 5 11 73 12 151 2 89 7 146 14 154 7 8 14 12 17 9 3 -2 0 -11 -7
-18 -9 -11 -7 -20 9 -38 l20 -24 20 24 c11 12 17 27 14 32 -3 5 4 9 16 9 12 0
19 4 16 9 -4 5 29 9 74 9 45 0 78 -4 74 -9 -3 -5 4 -9 16 -9 12 0 19 -4 16 -9
-3 -5 3 -20 14 -32 l20 -24 20 24 c16 18 18 27 9 38 -7 7 -10 16 -7 18 3 3 10
-1 17 -9 7 -8 12 -65 14 -154 1 -78 7 -146 12 -151 7 -7 8 44 5 152 l-5 161
-49 30 c-43 27 -58 31 -140 33 -59 2 -104 -1 -127 -10z m85 -5 c6 -10 36 -9
52 0 15 10 95 -13 88 -24 -4 -6 1 -8 13 -4 17 6 21 1 26 -30 8 -45 -1 -63 -19
-39 -8 11 -10 24 -5 34 7 12 4 16 -12 18 -51 4 -80 12 -88 25 -7 10 -9 10 -9
-2 0 -13 -1 -13 -10 0 -6 9 -13 11 -17 5 -5 -5 -15 -12 -23 -14 -29 -6 -65
-12 -87 -14 -16 -2 -19 -6 -12 -18 5 -10 3 -23 -5 -34 -18 -25 -29 -4 -20 40
5 31 9 35 28 29 12 -4 17 -3 13 2 -5 5 8 14 30 21 48 15 51 15 57 5z"/>
<path d="M2093 5545 c0 -30 6 -28 12 4 2 11 0 21 -4 21 -5 0 -8 -11 -8 -25z"/>
<path d="M2706 5562 c-2 -4 -1 -14 4 -22 7 -11 9 -9 7 8 -1 24 -3 26 -11 14z"/>
<path d="M2730 5530 c-14 -22 -29 -40 -34 -40 -5 0 -7 -3 -4 -6 4 -3 -3 -27
-14 -52 -16 -35 -22 -75 -26 -162 l-5 -115 -38 3 c-21 2 -40 9 -42 15 -2 7 -3
4 -2 -5 4 -24 -12 -23 -25 2 -7 14 -7 20 0 20 5 0 10 5 10 10 0 18 -19 10 -25
-11 -5 -14 -2 -25 6 -30 8 -5 10 -9 4 -9 -5 0 -3 -5 5 -10 8 -6 38 -9 65 -8
48 2 50 1 51 -26 1 -15 -2 -47 -7 -69 -24 -134 -10 -354 27 -434 17 -34 74
-84 74 -64 0 6 5 10 12 8 6 -1 14 7 16 18 6 27 22 46 34 39 6 -4 5 -10 -3 -15
-11 -7 -10 -9 5 -9 13 0 17 5 13 19 -2 10 4 29 14 42 10 13 18 31 18 39 0 10
-3 8 -9 -5 -8 -18 -9 -17 -9 8 -1 15 4 27 9 27 6 1 73 1 150 1 77 0 145 0 150
-1 6 0 10 -12 9 -27 0 -25 -1 -26 -9 -8 -5 11 -9 14 -9 7 -1 -8 8 -25 18 -38
11 -14 17 -33 14 -44 -4 -14 0 -20 11 -20 10 0 13 5 9 18 -6 15 -5 15 10 4 8
-8 17 -23 19 -35 2 -12 9 -21 16 -20 6 2 12 -2 12 -8 0 -19 57 30 73 64 38 78
52 302 28 434 -5 22 -8 54 -7 69 1 27 3 28 51 26 28 -1 57 2 65 8 8 5 11 10 5
10 -5 0 -4 4 4 9 8 5 11 16 6 30 -6 21 -25 29 -25 11 0 -5 5 -10 10 -10 7 0 6
-8 -2 -22 l-12 -23 -7 25 c-4 14 -7 18 -8 9 -1 -12 -12 -18 -40 -21 l-38 -3
-5 115 c-4 87 -10 127 -26 162 -11 25 -18 49 -14 52 3 3 1 6 -4 6 -5 0 -20 18
-34 40 -26 42 -51 53 -49 23 0 -11 3 -13 6 -5 12 31 103 -146 103 -201 0 -33
-1 -33 -50 -36 l-49 -2 -4 108 c-2 70 -3 54 -3 -44 1 -84 3 -153 6 -153 3 0 6
12 7 26 1 33 10 41 49 47 28 4 33 2 37 -22 3 -14 9 -35 13 -46 6 -16 5 -18 -7
-7 -7 6 -16 12 -20 12 -4 0 -7 -6 -6 -12 1 -47 -4 -65 -21 -63 -9 0 -23 4 -29
8 -19 12 -25 -9 -31 -100 -5 -87 -17 -113 -52 -113 -10 0 -20 9 -23 20 -3 11
-12 20 -21 20 -9 0 -16 -8 -16 -20 0 -13 -7 -20 -20 -20 -11 0 -20 7 -20 15 0
17 -16 20 -25 5 -3 -5 0 -10 7 -10 10 0 9 -3 -2 -9 -8 -6 -17 -8 -21 -5 -4 2
-27 5 -50 6 -24 1 -38 3 -31 6 7 2 10 8 6 13 -8 14 -24 11 -24 -6 0 -8 -9 -15
-20 -15 -13 0 -20 7 -20 20 0 23 -3 23 185 24 l130 1 3 88 c2 56 -1 94 -9 103
-6 7 -13 28 -15 46 -9 69 -13 90 -18 96 -3 3 -6 -6 -6 -19 0 -19 -2 -21 -10
-9 -5 8 -10 10 -10 4 0 -5 7 -19 15 -30 9 -11 14 -42 15 -77 0 -44 3 -56 13
-51 7 4 5 -1 -3 -12 -22 -27 -62 -104 -55 -104 3 0 20 15 36 33 l30 32 -3 -40
-3 -40 -185 0 -185 0 -3 37 c-3 31 0 37 13 32 9 -4 14 -9 11 -11 -5 -5 30 -43
40 -43 7 0 -35 78 -56 104 -8 11 -10 16 -2 12 9 -5 12 7 12 51 1 35 6 66 15
77 8 11 15 25 15 30 0 6 -5 4 -10 -4 -8 -12 -10 -10 -10 9 0 13 -3 22 -6 19
-5 -6 -9 -27 -18 -96 -2 -18 -9 -39 -15 -46 -8 -9 -11 -47 -9 -103 l3 -88 43
1 c31 1 39 -2 28 -8 -9 -5 -16 -16 -16 -23 0 -8 -9 -15 -19 -15 -36 0 -48 25
-53 113 -6 91 -12 112 -31 100 -6 -4 -20 -8 -29 -8 -17 -2 -22 16 -21 63 1 6
-2 12 -6 12 -4 0 -13 -6 -20 -12 -12 -11 -13 -9 -7 7 4 11 10 32 13 46 3 18
11 26 22 24 9 -2 23 -4 33 -4 16 -1 41 -54 31 -65 -4 -3 -2 -6 3 -6 5 0 9 67
10 153 0 98 -1 114 -3 44 l-4 -108 -49 2 c-49 3 -50 3 -50 36 0 55 91 232 103
201 3 -8 6 -6 6 5 2 30 -23 19 -49 -23z m-54 -372 c-11 -15 -16 -18 -16 -7 0
16 21 42 28 34 2 -2 -3 -14 -12 -27z m664 -6 c0 -13 -3 -12 -15 4 -19 25 -19
40 0 24 8 -7 15 -20 15 -28z m-579 -76 c3 -110 13 -136 54 -136 23 0 23 -2 18
-72 -5 -69 -4 -72 11 -51 9 12 14 34 12 51 -4 35 10 63 22 46 11 -16 41 -24
47 -14 3 6 15 15 26 21 19 10 20 9 9 -11 -7 -13 -8 -20 -3 -17 6 4 15 -9 20
-28 9 -27 8 -35 -3 -39 -8 -3 -14 -15 -14 -26 0 -17 6 -20 40 -20 34 0 40 3
40 20 0 11 -6 23 -14 26 -11 4 -12 12 -1 49 8 24 10 46 7 50 -4 4 3 3 15 -4
12 -6 25 -15 28 -21 6 -10 36 -2 48 14 11 17 25 -11 21 -46 -2 -17 3 -39 12
-51 15 -21 16 -18 11 51 -5 70 -5 72 18 72 41 0 51 26 54 136 1 52 1 52 37 56
19 2 38 0 40 -4 14 -22 34 -295 25 -333 -5 -22 -13 -66 -16 -97 -5 -38 -18
-74 -37 -105 l-30 -47 -14 32 c-7 18 -27 40 -44 50 -25 14 -30 23 -30 54 0 20
-4 40 -10 43 -5 3 -10 26 -10 49 0 37 -4 45 -22 50 -19 5 -21 8 -8 16 13 9 13
10 0 10 -8 0 -26 -9 -40 -19 -20 -16 -22 -21 -11 -35 7 -9 10 -16 5 -17 -5 0
0 -5 11 -10 15 -7 12 -8 -12 -3 -23 4 -33 2 -33 -7 0 -7 3 -10 6 -6 3 3 16 2
29 -3 24 -9 53 9 38 23 -3 4 -2 7 4 7 6 0 13 -9 16 -19 3 -14 1 -18 -9 -14 -9
3 -12 0 -9 -8 4 -11 -18 -14 -115 -14 -97 0 -119 3 -115 14 3 9 0 11 -10 7
-13 -4 -14 -2 -5 14 6 11 14 20 17 20 3 0 3 -3 0 -7 -15 -14 14 -32 38 -23 13
5 26 6 29 3 3 -4 6 -1 6 6 0 9 -10 11 -32 7 -25 -5 -28 -4 -13 3 11 5 16 10
10 11 -5 0 -2 7 8 14 17 13 16 15 -12 35 -16 12 -35 21 -43 21 -10 0 -9 -3 2
-10 13 -8 11 -11 -7 -16 -19 -5 -23 -13 -23 -50 0 -23 -4 -46 -10 -49 -5 -3
-10 -23 -10 -43 0 -31 -5 -40 -30 -54 -17 -10 -37 -32 -44 -50 l-14 -32 -30
47 c-19 31 -32 67 -37 105 -3 31 -11 75 -16 97 -9 38 11 311 25 333 2 4 21 6
40 4 36 -4 36 -4 37 -56z m164 -146 c-3 -5 -13 -10 -21 -10 -8 0 -14 5 -14 10
0 6 9 10 21 10 11 0 17 -4 14 -10z m87 -40 c-2 -27 -8 -50 -12 -50 -4 0 -10
23 -12 50 -2 39 0 50 12 50 12 0 14 -11 12 -50z m98 40 c0 -5 -6 -10 -14 -10
-8 0 -18 5 -21 10 -3 6 3 10 14 10 12 0 21 -4 21 -10z m-196 -125 c-4 -8 -10
-15 -15 -15 -5 0 -9 7 -9 15 0 8 7 15 15 15 9 0 12 -6 9 -15z m106 -2 c0 -7
-9 -13 -20 -13 -11 0 -20 6 -20 13 0 7 9 13 20 13 11 0 20 -6 20 -13z m90 2
c0 -8 -4 -15 -9 -15 -5 0 -11 7 -15 15 -3 9 0 15 9 15 8 0 15 -7 15 -15z"/>
<path d="M2710 4920 c0 -5 5 -10 10 -10 6 0 10 5 10 10 0 6 -4 10 -10 10 -5 0
-10 -4 -10 -10z"/>
<path d="M3270 4920 c0 -5 5 -10 10 -10 6 0 10 5 10 10 0 6 -4 10 -10 10 -5 0
-10 -4 -10 -10z"/>
<path d="M2988 4753 c6 -2 18 -2 25 0 6 3 1 5 -13 5 -14 0 -19 -2 -12 -5z"/>
<path d="M2750 4681 c0 -6 5 -13 10 -16 6 -3 10 1 10 9 0 9 -4 16 -10 16 -5 0
-10 -4 -10 -9z"/>
<path d="M3230 4674 c0 -8 5 -12 10 -9 6 3 10 10 10 16 0 5 -4 9 -10 9 -5 0
-10 -7 -10 -16z"/>
<path d="M2940 5564 c0 -11 42 -44 56 -44 20 0 44 11 44 21 0 5 -13 6 -28 3
-19 -4 -34 0 -45 10 -16 17 -27 20 -27 10z"/>
<path d="M3045 5560 c3 -5 8 -10 11 -10 2 0 4 5 4 10 0 6 -5 10 -11 10 -5 0
-7 -4 -4 -10z"/>
<path d="M3283 5555 c0 -8 4 -12 9 -9 5 3 6 10 3 15 -9 13 -12 11 -12 -6z"/>
<path d="M3895 5553 c2 -10 4 -22 4 -28 1 -5 5 -4 10 4 10 15 4 41 -9 41 -5 0
-7 -8 -5 -17z"/>
<path d="M2063 5532 c-1 -22 0 -24 9 -8 6 10 6 22 2 26 -5 5 -10 -3 -11 -18z"/>
<path d="M2895 5530 c-8 -13 15 -13 35 0 12 8 11 10 -7 10 -12 0 -25 -4 -28
-10z"/>
<path d="M3070 5530 c20 -13 43 -13 35 0 -3 6 -16 10 -28 10 -18 0 -19 -2 -7
-10z"/>
<path d="M3890 5495 c0 -5 5 -17 10 -25 5 -8 10 -10 10 -5 0 6 -5 17 -10 25
-5 8 -10 11 -10 5z"/>
<path d="M2918 5459 c-20 -15 -25 -26 -22 -45 3 -15 1 -23 -5 -20 -5 4 -11
-19 -14 -51 -2 -32 -10 -76 -17 -98 -18 -58 -13 -135 10 -160 10 -11 19 -24
20 -30 1 -14 54 -27 58 -15 2 6 9 7 15 3 6 -4 8 0 4 10 -5 14 0 17 33 17 33 0
38 -3 33 -17 -4 -10 -2 -14 4 -10 6 4 13 3 15 -3 4 -12 57 1 58 15 1 6 10 19
20 30 23 25 28 102 10 160 -7 22 -15 66 -17 98 -3 32 -9 55 -14 51 -6 -3 -8 5
-5 20 4 20 -2 30 -26 47 -30 21 -31 22 -44 4 -7 -10 -11 -22 -8 -26 3 -5 -9
-9 -27 -9 -18 0 -29 3 -26 6 7 8 -10 44 -21 44 -4 0 -19 -10 -34 -21z m41 -16
c0 -16 -3 -22 -6 -15 -2 6 -10 12 -16 12 -8 0 -8 -3 0 -11 9 -9 8 -18 -4 -35
-11 -17 -12 -24 -3 -24 6 0 14 8 17 18 3 14 14 18 53 18 39 0 50 -4 53 -18 3
-10 11 -18 17 -18 9 0 8 7 -3 24 -12 17 -13 26 -4 35 8 8 8 11 0 11 -6 0 -14
-6 -16 -12 -3 -7 -6 -1 -6 15 -1 27 0 27 23 12 30 -20 37 -65 37 -231 0 -70 4
-124 10 -124 5 0 9 27 9 60 0 33 4 60 9 60 15 0 3 -114 -14 -126 -8 -6 -12
-14 -8 -17 3 -4 -7 -11 -22 -17 -15 -6 -31 -8 -34 -4 -8 8 -9 152 -1 237 l5
67 -55 0 -55 0 5 -67 c8 -82 7 -229 0 -237 -9 -8 -50 5 -50 17 0 5 -7 15 -15
21 -17 12 -30 126 -14 126 5 0 9 -27 9 -60 0 -33 4 -60 9 -60 5 0 10 57 10
129 0 156 7 201 35 223 27 22 26 23 25 -9z m68 -205 c-4 -90 -5 -93 -27 -93
-23 0 -24 3 -27 93 l-4 92 31 0 31 0 -4 -92z m-2 -118 c-3 -5 -15 -10 -25 -10
-10 0 -22 5 -25 10 -4 6 7 10 25 10 18 0 29 -4 25 -10z"/>
<path d="M2908 5223 c6 -2 18 -2 25 0 6 3 1 5 -13 5 -14 0 -19 -2 -12 -5z"/>
<path d="M3068 5223 c6 -2 18 -2 25 0 6 3 1 5 -13 5 -14 0 -19 -2 -12 -5z"/>
<path d="M2918 5083 c7 -3 16 -2 19 1 4 3 -2 6 -13 5 -11 0 -14 -3 -6 -6z"/>
<path d="M3068 5083 c7 -3 16 -2 19 1 4 3 -2 6 -13 5 -11 0 -14 -3 -6 -6z"/>
<path d="M2615 5400 c-3 -5 -1 -10 4 -10 6 0 11 5 11 10 0 6 -2 10 -4 10 -3 0
-8 -4 -11 -10z"/>
<path d="M3370 5400 c0 -5 5 -10 11 -10 5 0 7 5 4 10 -3 6 -8 10 -11 10 -2 0
-4 -4 -4 -10z"/>
<path d="M2730 5380 c0 -5 5 -10 10 -10 6 0 10 5 10 10 0 6 -4 10 -10 10 -5 0
-10 -4 -10 -10z"/>
<path d="M2832 5365 c0 -16 2 -22 5 -12 2 9 2 23 0 30 -3 6 -5 -1 -5 -18z"/>
<path d="M3162 5365 c0 -16 2 -22 5 -12 2 9 2 23 0 30 -3 6 -5 -1 -5 -18z"/>
<path d="M3250 5380 c0 -5 5 -10 10 -10 6 0 10 5 10 10 0 6 -4 10 -10 10 -5 0
-10 -4 -10 -10z"/>
<path d="M3141 5344 c0 -11 3 -14 6 -6 3 7 2 16 -1 19 -3 4 -6 -2 -5 -13z"/>
<path d="M2615 5299 c-4 -6 -5 -12 -2 -15 2 -3 7 2 10 11 7 17 1 20 -8 4z"/>
<path d="M2601 5254 c0 -11 3 -14 6 -6 3 7 2 16 -1 19 -3 4 -6 -2 -5 -13z"/>
<path d="M2795 5219 c-4 -6 -5 -12 -2 -15 2 -3 7 2 10 11 7 17 1 20 -8 4z"/>
<path d="M3196 5217 c3 -10 9 -15 12 -12 3 3 0 11 -7 18 -10 9 -11 8 -5 -6z"/>
<path d="M3231 5194 c0 -11 3 -14 6 -6 3 7 2 16 -1 19 -3 4 -6 -2 -5 -13z"/>
<path d="M2760 5190 c0 -5 5 -10 10 -10 6 0 10 5 10 10 0 6 -4 10 -10 10 -5 0
-10 -4 -10 -10z"/>
<path d="M2980 5045 c0 -8 9 -15 20 -15 11 0 20 7 20 15 0 8 -9 15 -20 15 -11
0 -20 -7 -20 -15z"/>
<path d="M2960 4981 c0 -6 5 -13 10 -16 6 -3 10 1 10 9 0 9 -4 16 -10 16 -5 0
-10 -4 -10 -9z"/>
<path d="M3020 4976 c0 -23 16 -27 17 -5 1 10 -2 19 -8 19 -5 0 -9 -6 -9 -14z"/>
<path d="M2890 4667 c0 -20 5 -39 11 -42 7 -5 8 5 3 32 -9 51 -14 54 -14 10z"/>
<path d="M2927 4693 c-4 -3 -7 -16 -7 -27 0 -17 7 -21 31 -22 17 -1 35 -7 41
-15 7 -11 11 -11 14 -2 3 7 21 15 40 19 28 5 34 11 32 27 -4 27 -26 33 -36 10
-10 -25 -74 -25 -84 0 -8 18 -20 22 -31 10z"/>
<path d="M3101 4685 c0 -11 -4 -31 -7 -45 -5 -19 -4 -22 5 -14 7 6 11 26 8 45
-2 19 -5 25 -6 14z"/>
<path d="M2891 4605 c1 -19 18 -51 18 -35 0 8 -4 22 -9 30 -5 8 -9 11 -9 5z"/>
<path d="M3092 4585 c-1 -14 2 -25 6 -25 4 0 8 11 8 25 2 33 -11 33 -14 0z"/>
<path d="M2814 4543 c0 -16 -5 -82 -9 -148 -10 -140 -7 -326 5 -339 5 -5 9 28
8 76 0 46 3 164 7 261 4 100 4 177 -1 177 -5 0 -9 -12 -10 -27z"/>
<path d="M2977 4550 c5 -17 0 -20 -31 -20 -20 0 -36 5 -36 10 0 6 -5 10 -11
10 -5 0 -7 -4 -4 -10 4 -6 -7 -10 -26 -10 -18 0 -30 -3 -26 -6 9 -9 317 -10
317 -1 0 4 -11 7 -24 7 -13 0 -27 6 -30 13 -5 10 -7 10 -12 0 -3 -7 -22 -13
-41 -13 -30 0 -35 3 -30 20 3 11 1 20 -4 20 -5 0 -9 -9 -9 -20 0 -11 -4 -20
-10 -20 -5 0 -10 9 -10 20 0 11 -4 20 -9 20 -5 0 -7 -9 -4 -20z"/>
<path d="M3174 4403 c8 -211 9 -343 3 -350 -3 -3 -10 13 -16 34 -16 57 -66
124 -88 117 -11 -4 -14 -3 -7 3 8 5 0 21 -27 52 l-39 44 -39 -44 c-27 -31 -35
-47 -27 -52 7 -6 5 -7 -6 -3 -20 6 -59 -36 -77 -85 -7 -19 -19 -49 -27 -66
-16 -38 -17 -131 -2 -223 6 -36 12 -78 14 -95 2 -16 10 -46 18 -65 16 -40 16
-41 16 -76 0 -14 4 -23 9 -19 5 3 12 -4 16 -15 9 -28 19 -25 59 15 20 19 40
35 46 35 6 0 26 -16 46 -35 19 -19 42 -35 51 -35 9 0 13 3 10 6 -4 4 0 19 7
33 11 20 42 116 38 116 -1 0 3 18 8 40 20 86 30 167 37 306 8 180 8 186 -2
344 -4 72 -9 142 -9 158 -1 15 -5 27 -10 27 -5 0 -6 -71 -2 -167z m-108 -233
c73 -77 104 -134 104 -191 0 -86 -56 -395 -76 -418 -7 -7 -55 42 -70 71 -8 15
-14 47 -14 73 0 25 -4 45 -10 45 -5 0 -10 -20 -10 -45 0 -26 -6 -58 -14 -73
-15 -29 -63 -78 -70 -71 -10 12 -47 177 -61 270 -20 142 -19 182 6 232 20 40
138 177 149 174 3 -1 33 -31 66 -67z"/>
<path d="M3053 4020 c0 -41 2 -58 4 -37 2 20 2 54 0 75 -2 20 -4 3 -4 -38z"/>
<path d="M2943 4015 c0 -38 2 -53 4 -32 2 20 2 52 0 70 -2 17 -4 1 -4 -38z"/>
<path d="M2990 3875 c0 -63 4 -105 10 -105 6 0 10 42 10 105 0 63 -4 105 -10
105 -6 0 -10 -42 -10 -105z"/>
<path d="M2921 3914 c0 -11 3 -14 6 -6 3 7 2 16 -1 19 -3 4 -6 -2 -5 -13z"/>
<path d="M2939 3732 c-3 -20 -2 -29 4 -23 5 5 7 19 5 32 -3 20 -5 19 -9 -9z"/>
<path d="M2945 3680 c-3 -5 -1 -10 4 -10 6 0 11 5 11 10 0 6 -2 10 -4 10 -3 0
-8 -4 -11 -10z"/>
<path d="M2925 3640 c-3 -5 1 -10 10 -10 9 0 13 5 10 10 -3 6 -8 10 -10 10 -2
0 -7 -4 -10 -10z"/>
<path d="M3055 3640 c-3 -5 -1 -10 4 -10 6 0 11 5 11 10 0 6 -2 10 -4 10 -3 0
-8 -4 -11 -10z"/>
<path d="M2953 4433 c-27 -10 -12 -21 15 -11 43 17 80 3 85 -30 4 -26 4 -26 6
4 0 21 -5 34 -15 38 -18 7 -73 7 -91 -1z"/>
<path d="M2977 4403 c-17 -4 -17 -6 -3 -21 8 -10 15 -21 15 -27 1 -5 6 -10 11
-10 6 0 10 5 11 10 0 6 8 18 16 28 9 9 11 17 5 17 -6 0 -16 2 -24 4 -7 2 -21
2 -31 -1z m33 -13 c0 -5 -4 -10 -10 -10 -5 0 -10 5 -10 10 0 6 5 10 10 10 6 0
10 -4 10 -10z"/>
<path d="M2941 4384 c0 -11 3 -14 6 -6 3 7 2 16 -1 19 -3 4 -6 -2 -5 -13z"/>
<path d="M2903 4255 c0 -8 4 -12 9 -9 5 3 6 10 3 15 -9 13 -12 11 -12 -6z"/>
<path d="M2425 3619 c-4 -6 -5 -12 -2 -15 2 -3 7 2 10 11 7 17 1 20 -8 4z"/>
<path d="M3566 3617 c3 -10 9 -15 12 -12 3 3 0 11 -7 18 -10 9 -11 8 -5 -6z"/>
<path d="M2711 3344 c0 -11 3 -14 6 -6 3 7 2 16 -1 19 -3 4 -6 -2 -5 -13z"/>
<path d="M3281 3344 c0 -11 3 -14 6 -6 3 7 2 16 -1 19 -3 4 -6 -2 -5 -13z"/>
<path d="M2564 3314 c2 -14 10 -32 18 -40 13 -13 16 -13 29 2 12 16 12 17 -3
11 -10 -3 -20 -1 -24 5 -4 7 -3 8 4 4 16 -10 15 5 -2 27 -18 24 -25 21 -22 -9z"/>
<path d="M3420 3332 c0 -5 -9 -18 -20 -29 -16 -17 -17 -23 -6 -32 10 -8 17 -7
26 4 16 19 22 65 9 65 -5 0 -9 -4 -9 -8z"/>
<path d="M3503 3317 c0 -15 0 -27 1 -25 1 2 8 12 16 22 8 11 10 17 3 13 -6 -4
-13 -1 -16 5 -2 7 -4 0 -4 -15z"/>
<path d="M2697 3309 c4 -13 8 -18 11 -10 2 7 -1 18 -6 23 -8 8 -9 4 -5 -13z"/>
<path d="M3293 3315 c-3 -9 -3 -18 -1 -21 3 -3 8 4 11 16 6 23 -1 27 -10 5z"/>
<path d="M3475 3310 c-3 -5 -1 -10 4 -10 6 0 11 5 11 10 0 6 -2 10 -4 10 -3 0
-8 -4 -11 -10z"/>
<path d="M2530 3282 c0 -5 11 -15 25 -22 13 -7 23 -16 20 -19 -2 -4 5 -8 16
-8 16 -2 12 5 -17 28 -40 31 -44 33 -44 21z"/>
<path d="M2731 3274 c0 -11 3 -14 6 -6 3 7 2 16 -1 19 -3 4 -6 -2 -5 -13z"/>
<path d="M3261 3274 c0 -11 3 -14 6 -6 3 7 2 16 -1 19 -3 4 -6 -2 -5 -13z"/>
<path d="M3426 3261 c-29 -23 -33 -30 -17 -28 11 0 18 4 16 8 -3 3 7 12 20 19
14 7 25 17 25 22 0 12 -4 10 -44 -21z"/>
<path d="M2690 3276 c0 -2 7 -9 15 -16 13 -11 14 -10 9 4 -5 14 -24 23 -24 12z"/>
<path d="M3290 3265 c-7 -9 -11 -17 -9 -20 3 -2 10 5 17 15 14 24 10 26 -8 5z"/>
<path d="M2457 3264 c-3 -4 -1 -16 5 -27 6 -12 24 -55 39 -97 23 -61 28 -69
29 -43 0 26 3 31 20 28 11 -2 22 0 25 5 3 5 -4 7 -15 5 -29 -6 -56 26 -51 58
2 13 -45 77 -52 71z"/>
<path d="M3514 3232 c-10 -20 -19 -39 -19 -42 -4 -23 -18 -50 -26 -50 -6 0 -8
4 -4 9 3 5 0 13 -6 17 -7 4 -9 3 -6 -3 8 -13 -17 -36 -28 -25 -5 4 -5 2 -1 -5
3 -6 15 -10 26 -8 17 3 20 -2 20 -28 1 -26 6 -18 29 43 15 42 33 85 40 97 6
12 7 24 2 27 -5 3 -17 -11 -27 -32z"/>
<path d="M2506 3222 c5 -4 12 -11 15 -15 3 -5 9 -2 12 5 3 9 -3 14 -15 15 -11
1 -16 -1 -12 -5z"/>
<path d="M3467 3212 c3 -7 9 -10 12 -5 3 4 10 11 15 15 4 4 -1 6 -12 5 -12 -1
-18 -6 -15 -15z"/>
<path d="M2515 3180 c3 -5 8 -10 11 -10 2 0 4 5 4 10 0 6 -5 10 -11 10 -5 0
-7 -4 -4 -10z"/>
<path d="M3470 3179 c0 -5 5 -7 10 -4 6 3 10 8 10 11 0 2 -4 4 -10 4 -5 0 -10
-5 -10 -11z"/>
<path d="M2640 3171 c0 -6 4 -13 10 -16 6 -3 7 1 4 9 -7 18 -14 21 -14 7z"/>
<path d="M3346 3163 c-6 -14 -5 -15 5 -6 7 7 10 15 7 18 -3 3 -9 -2 -12 -12z"/>
<path d="M2790 3151 c0 -6 4 -13 10 -16 6 -3 7 1 4 9 -7 18 -14 21 -14 7z"/>
<path d="M3196 3145 c-9 -26 -7 -32 5 -12 6 10 9 21 6 23 -2 3 -7 -2 -11 -11z"/>
<path d="M2715 2940 c-41 -20 -68 -47 -59 -62 3 -4 17 1 31 12 14 11 30 17 36
13 6 -3 7 -1 3 5 -4 7 3 14 19 18 14 3 25 12 25 20 0 17 -5 17 -55 -6z"/>
<path d="M2791 2951 c-9 -6 -6 -10 10 -14 28 -8 34 -3 16 11 -7 6 -19 7 -26 3z"/>
<path d="M3180 2944 c-13 -15 -6 -17 24 -5 17 6 17 8 3 14 -8 3 -21 -1 -27 -9z"/>
<path d="M3230 2945 c0 -8 -8 -15 -17 -16 -15 0 -15 -2 2 -9 11 -5 27 -9 35
-9 9 0 8 4 -5 9 -23 10 -5 13 19 4 9 -3 13 -11 9 -17 -3 -5 -1 -7 4 -4 6 4 22
-2 36 -13 16 -13 28 -16 32 -10 3 5 1 10 -4 10 -6 0 -10 5 -8 12 1 6 -18 22
-43 34 -54 27 -60 28 -60 9z"/>
<path d="M2755 2920 c-13 -5 -14 -9 -5 -9 8 0 24 4 35 9 13 5 14 9 5 9 -8 0
-24 -4 -35 -9z"/>
<path d="M2768 2878 c-7 -7 -38 -25 -69 -41 -55 -27 -93 -57 -71 -57 6 0 12 4
14 9 2 4 40 26 85 47 l81 39 7 -44 c4 -27 10 -39 14 -32 17 27 -8 91 -35 91
-7 0 -19 -6 -26 -12z"/>
<path d="M3183 2878 c-14 -18 -21 -64 -12 -79 4 -7 10 6 14 32 l7 45 81 -40
c45 -22 84 -44 85 -48 5 -11 22 -10 22 0 0 5 -12 15 -27 23 -16 7 -54 28 -85
46 -63 37 -71 39 -85 21z"/>
<path d="M2555 2860 c3 -5 1 -10 -4 -10 -6 0 -11 -4 -11 -10 0 -5 7 -7 15 -4
17 7 21 34 4 34 -5 0 -7 -4 -4 -10z"/>
<path d="M3430 2856 c0 -8 7 -16 15 -20 8 -3 15 -1 15 4 0 6 -5 10 -11 10 -5
0 -7 5 -4 10 3 6 1 10 -4 10 -6 0 -11 -6 -11 -14z"/>
<path d="M2911 2814 c0 -11 3 -14 6 -6 3 7 2 16 -1 19 -3 4 -6 -2 -5 -13z"/>
<path d="M2730 2810 c-13 -9 -13 -10 0 -10 8 0 22 5 30 10 13 9 13 10 0 10 -8
0 -22 -5 -30 -10z"/>
<path d="M3240 2810 c8 -5 22 -9 30 -9 10 0 8 3 -5 9 -27 12 -43 12 -25 0z"/>
<path d="M2768 2793 c7 -3 16 -2 19 1 4 3 -2 6 -13 5 -11 0 -14 -3 -6 -6z"/>
<path d="M3218 2793 c7 -3 16 -2 19 1 4 3 -2 6 -13 5 -11 0 -14 -3 -6 -6z"/>
<path d="M2780 2769 c0 -5 5 -7 10 -4 6 3 10 8 10 11 0 2 -4 4 -10 4 -5 0 -10
-5 -10 -11z"/>
<path d="M3205 2770 c3 -5 8 -10 11 -10 2 0 4 5 4 10 0 6 -5 10 -11 10 -5 0
-7 -4 -4 -10z"/>
<path d="M2703 2763 c15 -2 37 -2 50 0 12 2 0 4 -28 4 -27 0 -38 -2 -22 -4z"/>
<path d="M3253 2763 c15 -2 37 -2 50 0 12 2 0 4 -28 4 -27 0 -38 -2 -22 -4z"/>
<path d="M2775 2750 l-30 -8 27 -1 c15 0 30 4 33 9 3 6 5 9 3 9 -2 -1 -16 -5
-33 -9z"/>
<path d="M3199 2747 c5 -5 19 -7 32 -5 20 3 19 5 -9 9 -20 3 -29 2 -23 -4z"/>
<path d="M3337 2744 c-27 -7 -72 -16 -100 -19 -29 -4 -55 -12 -59 -18 -4 -6
-16 -2 -33 12 -21 16 -31 18 -41 10 -8 -6 -11 -16 -8 -21 4 -6 1 -13 -5 -17
-6 -4 -9 -15 -5 -24 10 -27 24 -9 25 31 1 25 3 29 6 14 3 -14 10 -22 18 -18 7
2 15 -4 19 -16 4 -18 7 -19 20 -8 9 7 16 18 16 25 0 8 26 15 78 19 42 4 105 9
139 13 34 3 76 1 93 -5 24 -9 30 -8 30 3 0 7 -20 17 -47 24 -58 12 -84 12
-146 -5z"/>
</g>
</svg>
