<?xml version="1.0" standalone="no"?>
<!DOCTYPE svg PUBLIC "-//W3C//DTD SVG 20010904//EN"
 "http://www.w3.org/TR/2001/REC-SVG-20010904/DTD/svg10.dtd">
<svg version="1.0" xmlns="http://www.w3.org/2000/svg"
 width="600.000000pt" height="400.000000pt" viewBox="0 0 600.000000 400.000000"
 preserveAspectRatio="xMidYMid meet">
<g transform="translate(0.000000,400.000000) scale(0.100000,-0.100000)"
fill="#000000" stroke="none">
<path d="M3701 3365 c-101 -32 -140 -107 -148 -287 l-6 -118 117 0 116 0 0 79
c0 127 6 131 186 131 183 0 184 -1 184 -125 l0 -85 118 0 119 0 -4 83 c-10
225 -44 294 -162 327 -56 15 -467 12 -520 -5z"/>
<path d="M328 3360 c-121 -36 -163 -126 -156 -334 4 -156 29 -218 104 -262 49
-29 50 -29 247 -32 l197 -4 0 -79 c0 -124 12 -119 -290 -119 l-251 0 3 -97 3
-98 50 -7 c80 -10 517 -9 556 2 120 33 154 101 154 305 0 272 -47 315 -347
315 -193 0 -198 3 -198 105 0 106 -3 105 260 105 l220 0 0 105 0 105 -262 -1
c-145 0 -275 -4 -290 -9z"/>
<path d="M1085 3265 l0 -105 358 0 357 0 0 105 0 105 -357 0 -358 0 0 -105z"/>
<path d="M2059 3354 c-55 -16 -111 -74 -130 -131 -9 -26 -14 -138 -16 -355 -7
-533 -1 -541 382 -546 127 -2 253 0 280 5 l50 8 3 103 3 103 -88 -5 c-48 -3
-149 -8 -224 -12 l-136 -6 -22 27 c-32 42 -33 547 0 589 l20 26 225 0 224 0 0
105 0 105 -262 -1 c-198 0 -275 -4 -309 -15z"/>
<path d="M2690 3265 l0 -105 135 0 135 0 0 -420 0 -420 115 0 115 0 0 420 0
420 135 0 135 0 0 105 0 105 -385 0 -385 0 0 -105z"/>
<path d="M1085 2855 l0 -105 308 0 307 0 0 105 0 105 -307 0 -308 0 0 -105z"/>
<path d="M3552 2618 c11 -284 55 -318 413 -318 347 0 403 35 412 260 2 52 5
116 7 143 l3 47 -118 0 -119 0 0 -100 c0 -141 2 -140 -184 -140 -183 0 -186 2
-186 146 l0 94 -116 0 -116 0 4 -132z"/>
<path d="M1088 2425 l-3 -105 358 0 357 0 0 105 0 105 -354 0 -355 0 -3 -105z"/>
<path d="M140 2105 l0 -105 135 0 135 0 0 -420 0 -420 115 0 115 0 0 420 0
420 135 0 135 0 0 105 0 105 -385 0 -385 0 0 -105z"/>
<path d="M1202 1982 c-40 -125 -116 -356 -168 -514 -52 -158 -94 -292 -94
-298 0 -6 46 -10 124 -10 l123 0 28 98 c15 53 45 151 66 217 21 66 54 179 74
250 47 170 46 167 51 163 2 -3 26 -83 53 -179 28 -96 64 -214 81 -263 16 -50
30 -96 30 -104 0 -8 12 -52 26 -98 l26 -84 125 0 c101 0 124 3 121 14 -2 7
-77 244 -168 525 l-165 511 -130 0 -130 0 -73 -228z"/>
<path d="M1965 1685 l0 -525 353 0 352 0 0 105 0 105 -235 0 -235 0 0 420 0
420 -117 0 -118 0 0 -525z"/>
<path d="M2775 1685 l0 -525 118 0 118 0 -3 215 -3 215 60 0 60 -1 96 -212 96
-212 121 -3 c67 -1 122 0 122 3 0 3 -56 124 -123 269 l-124 263 129 257 128
257 -126 -3 -127 -3 -96 -202 -96 -203 -60 0 -60 0 3 205 3 205 -118 0 -118 0
0 -525z"/>
<path d="M3795 2196 c-117 -37 -150 -103 -150 -306 0 -141 1 -147 30 -205 49
-98 81 -109 322 -113 l193 -3 0 -80 c0 -124 12 -119 -290 -119 l-251 0 3 -97
3 -98 45 -7 c76 -11 521 -9 565 3 116 32 150 100 150 304 0 272 -47 315 -347
315 -193 0 -198 3 -198 105 0 106 -3 105 260 105 l220 0 0 105 0 105 -257 -1
c-178 0 -271 -4 -298 -13z"/>
</g>
</svg>
